<svg width="27" height="27" viewBox="0 0 27 27" fill="none" xmlns="http://www.w3.org/2000/svg">
<path d="M13.5 1C11.0277 1 8.61099 1.73311 6.55538 3.10663C4.49976 4.48015 2.89761 6.43238 1.95151 8.71646C1.00542 11.0005 0.757874 13.5139 1.24019 15.9386C1.7225 18.3634 2.91301 20.5907 4.66117 22.3388C6.40933 24.087 8.63661 25.2775 11.0614 25.7598C13.4861 26.2421 15.9995 25.9946 18.2835 25.0485C20.5676 24.1024 22.5199 22.5002 23.8934 20.4446C25.2669 18.389 26 15.9723 26 13.5C26 11.8585 25.6767 10.233 25.0485 8.71646C24.4203 7.19989 23.4996 5.8219 22.3388 4.66117C21.1781 3.50043 19.8001 2.57969 18.2835 1.95151C16.767 1.32332 15.1415 1 13.5 1V1ZM13.5 4.75C14.2417 4.75 14.9667 4.96993 15.5834 5.38199C16.2001 5.79404 16.6807 6.37971 16.9646 7.06494C17.2484 7.75016 17.3226 8.50416 17.1779 9.23159C17.0333 9.95902 16.6761 10.6272 16.1517 11.1517C15.6272 11.6761 14.959 12.0333 14.2316 12.1779C13.5042 12.3226 12.7502 12.2484 12.0649 11.9645C11.3797 11.6807 10.794 11.2001 10.382 10.5834C9.96994 9.9667 9.75001 9.24168 9.75001 8.5C9.74935 8.00736 9.84589 7.51943 10.0341 7.06416C10.2223 6.60889 10.4985 6.19523 10.8469 5.84688C11.1952 5.49853 11.6089 5.22233 12.0642 5.03411C12.5194 4.84589 13.0074 4.74934 13.5 4.75V4.75ZM13.5 22.5C12.0148 22.5 10.5527 22.1325 9.2441 21.4302C7.93547 20.7279 6.82098 19.7126 6.00001 18.475C6.03801 15.988 11 14.625 13.5 14.625C16 14.625 20.962 15.988 21 18.475C20.179 19.7126 19.0645 20.7279 17.7559 21.4302C16.4473 22.1325 14.9852 22.5 13.5 22.5V22.5Z" fill="black" stroke="black"/>
</svg>
