<svg width="38" height="20" viewBox="0 0 38 20" fill="none" xmlns="http://www.w3.org/2000/svg">
<path d="M9.99982 1.00006C8.80789 0.963028 7.62101 1.1705 6.51233 1.60968C5.40365 2.04887 4.39667 2.71046 3.55344 3.55369C2.71022 4.39691 2.04862 5.4039 1.60944 6.51258C1.17025 7.62126 0.962784 8.80814 0.999818 10.0001C0.962784 11.192 1.17025 12.3789 1.60944 13.4875C2.04862 14.5962 2.71022 15.6032 3.55344 16.4464C4.39667 17.2897 5.40365 17.9513 6.51233 18.3904C7.62101 18.8296 8.80789 19.0371 9.99982 19.0001C13.5548 19.0001 16.3898 16.4801 18.9998 13.5101C21.6098 16.4801 24.3548 19.0001 27.9998 19.0001C29.1917 19.0371 30.3786 18.8296 31.4873 18.3904C32.596 17.9513 33.603 17.2897 34.4462 16.4464C35.2894 15.6032 35.951 14.5962 36.3902 13.4875C36.8294 12.3789 37.0369 11.192 36.9998 10.0001C37.0369 8.80814 36.8294 7.62126 36.3902 6.51258C35.951 5.4039 35.2894 4.39691 34.4462 3.55369C33.603 2.71046 32.596 2.04887 31.4873 1.60968C30.3786 1.1705 29.1917 0.963028 27.9998 1.00006C24.3548 1.00006 21.6098 3.52006 18.9998 6.49006C16.3898 3.52006 13.5548 1.00006 9.99982 1.00006ZM9.99982 5.50006C11.8898 5.50006 13.9598 7.61506 16.0298 10.0001C13.9598 12.3851 11.8898 14.5001 9.99982 14.5001C9.39842 14.5405 8.79533 14.4518 8.23103 14.24C7.66673 14.0281 7.15428 13.698 6.72806 13.2718C6.30185 12.8456 5.97175 12.3331 5.7599 11.7688C5.54806 11.2045 5.45938 10.6015 5.49982 10.0001C5.45938 9.39867 5.54806 8.79558 5.7599 8.23128C5.97175 7.66697 6.30185 7.15452 6.72806 6.72831C7.15428 6.3021 7.66673 5.97199 8.23103 5.76015C8.79533 5.5483 9.39842 5.45962 9.99982 5.50006V5.50006ZM27.9998 5.50006C28.6012 5.45962 29.2043 5.5483 29.7686 5.76015C30.3329 5.97199 30.8454 6.3021 31.2716 6.72831C31.6978 7.15452 32.0279 7.66697 32.2397 8.23128C32.4516 8.79558 32.5403 9.39867 32.4998 10.0001C32.5403 10.6015 32.4516 11.2045 32.2397 11.7688C32.0279 12.3331 31.6978 12.8456 31.2716 13.2718C30.8454 13.698 30.3329 14.0281 29.7686 14.24C29.2043 14.4518 28.6012 14.5405 27.9998 14.5001C26.0648 14.5001 23.9948 12.3851 21.9698 10.0001C24.0398 7.61506 26.0648 5.50006 27.9998 5.50006Z" fill="black"/>
</svg>
