<svg width="30" height="30" viewBox="0 0 30 30" fill="none" xmlns="http://www.w3.org/2000/svg">
<path d="M15.0048 7.30802C13.4834 7.30762 11.996 7.75841 10.7308 8.60338C9.46558 9.44835 8.47936 10.6495 7.89687 12.055C7.31437 13.4605 7.16176 15.0072 7.45833 16.4994C7.7549 17.9917 8.48733 19.3624 9.563 20.4384C10.6387 21.5143 12.0092 22.2471 13.5014 22.5441C14.9936 22.841 16.5403 22.6888 17.9459 22.1067C19.3516 21.5246 20.553 20.5387 21.3983 19.2737C22.2436 18.0087 22.6948 16.5214 22.6948 15C22.6965 13.9896 22.4988 12.9887 22.1129 12.0549C21.7271 11.121 21.1608 10.2724 20.4464 9.55784C19.732 8.84326 18.8836 8.2767 17.9498 7.89062C17.016 7.50455 16.0152 7.30657 15.0048 7.30802V7.30802ZM15.0048 20C14.0159 20 13.0492 19.7068 12.2269 19.1574C11.4047 18.608 10.7638 17.8271 10.3854 16.9134C10.0069 15.9998 9.90792 14.9945 10.1008 14.0246C10.2938 13.0547 10.77 12.1637 11.4692 11.4645C12.1685 10.7652 13.0594 10.289 14.0293 10.0961C14.9992 9.90317 16.0046 10.0022 16.9182 10.3806C17.8318 10.7591 18.6127 11.3999 19.1621 12.2222C19.7115 13.0444 20.0048 14.0111 20.0048 15C20.0024 16.3254 19.4748 17.5958 18.5377 18.5329C17.6005 19.4701 16.3301 19.9976 15.0048 20V20ZM24.8048 6.99302C24.8048 7.34758 24.6997 7.69419 24.5028 7.98908C24.306 8.28398 24.0261 8.51392 23.6987 8.64988C23.3712 8.78583 23.0108 8.82171 22.663 8.75297C22.3151 8.68424 21.9955 8.51397 21.7443 8.26367C21.4932 8.01338 21.3219 7.69428 21.252 7.34667C21.1821 6.99907 21.2168 6.63854 21.3516 6.31063C21.4865 5.98272 21.7155 5.70212 22.0097 5.50427C22.304 5.30643 22.6502 5.2002 23.0048 5.19902C23.241 5.1977 23.4752 5.24316 23.6938 5.33277C23.9124 5.42239 24.1111 5.55438 24.2784 5.72116C24.4457 5.88793 24.5784 6.08618 24.6687 6.30447C24.7591 6.52276 24.8053 6.75677 24.8048 6.99302V6.99302ZM29.8978 8.81402C29.9472 6.48174 29.0768 4.22369 27.4748 2.52802C25.7764 0.931506 23.5213 0.061987 21.1908 0.105018C18.7148 -0.0359824 11.2908 -0.0359824 8.81577 0.105018C6.48444 0.0579304 4.22734 0.925522 2.52777 2.52202C0.928384 4.21938 0.0584368 6.47629 0.104773 8.80802C-0.0362266 11.285 -0.0362266 18.708 0.104773 21.186C0.0553123 23.5183 0.9257 25.7763 2.52777 27.472C4.22678 29.0675 6.48143 29.9369 8.81177 29.895C11.2878 30.036 18.7118 30.036 21.1868 29.895C23.5184 29.9444 25.7758 29.074 27.4708 27.472C29.0674 25.7729 29.9369 23.5172 29.8938 21.186C30.0348 18.709 30.0348 11.292 29.8938 8.81502L29.8978 8.81402ZM26.6978 23.842C26.4433 24.4874 26.059 25.0736 25.5685 25.5642C25.0781 26.0548 24.492 26.4394 23.8468 26.694C21.8728 27.477 17.1878 27.294 15.0058 27.294C12.8238 27.294 8.13277 27.468 6.16477 26.694C5.5195 26.4394 4.93345 26.0548 4.44301 25.5642C3.95257 25.0736 3.5682 24.4874 3.31377 23.842C2.53077 21.867 2.71377 17.181 2.71377 14.999C2.71377 12.817 2.53977 8.12402 3.31377 6.15602C3.56798 5.51112 3.95194 4.92531 4.44184 4.4349C4.93174 3.94448 5.51715 3.55991 6.16177 3.30502C8.13577 2.52202 12.8208 2.70502 15.0028 2.70502C17.1848 2.70502 21.8758 2.53102 23.8438 3.30502C24.4891 3.55968 25.0751 3.94425 25.5655 4.43486C26.056 4.92547 26.4403 5.51165 26.6948 6.15702C27.4778 8.13202 27.2948 12.818 27.2948 15C27.2948 17.182 27.4778 21.875 26.6948 23.843L26.6978 23.842Z" fill="black"/>
</svg>
