<svg width="1332" height="781" viewBox="0 0 1332 781" fill="none" xmlns="http://www.w3.org/2000/svg">
<path d="M1332 8.00293V229.923C1330.43 229.243 1328.89 228.563 1327.33 227.883C1326.37 227.467 1325.41 227.051 1324.45 226.636C1195.61 171.198 1012.23 145.736 831.869 158.236C767.571 162.679 707.15 169.484 671.024 179.903C399.301 258.264 90.996 183.59 4.67303 162.71C3.10703 162.34 1.54202 161.96 -0.000976562 161.57V8.00293C-0.000976562 4.13693 7.32302 1.00293 16.357 1.00293H1315.64C1324.68 1.00293 1332 4.13693 1332 8.00293Z" fill="#3F3D56"/>
<path d="M659.408 531.485L644.396 534.879C642.654 544.766 642.973 584.926 642.973 584.926L641.68 623.353C640.995 624.332 640.579 625.475 640.476 626.665C640.373 627.856 640.585 629.053 641.092 630.136C641.599 631.218 642.382 632.148 643.363 632.831C644.343 633.515 645.487 633.928 646.678 634.029C647.869 634.129 649.065 633.914 650.147 633.405C651.228 632.896 652.156 632.111 652.838 631.129C653.519 630.147 653.929 629.003 654.028 627.812C654.126 626.62 653.908 625.424 653.397 624.344L655.349 576.951L659.408 531.485Z" fill="#FFB6B6"/>
<path d="M639.628 481.102C641.961 480.602 644.376 480.623 646.7 481.163C649.025 481.702 651.202 482.747 653.076 484.224C654.951 485.701 656.477 487.572 657.546 489.705C658.615 491.839 659.201 494.181 659.262 496.567L659.509 506.282C659.509 506.282 663.309 555.794 659.816 565.465L654.859 593.386L638.94 595.418L638.156 566.043C638.156 566.043 642.856 533.613 637.756 528.352C634.631 525.13 629.642 511.784 627.139 500.334C626.694 498.251 626.664 496.101 627.052 494.006C627.439 491.912 628.235 489.914 629.395 488.128C630.555 486.342 632.056 484.802 633.812 483.596C635.568 482.39 637.544 481.543 639.628 481.102V481.102Z" fill="#656464"/>
<path d="M437.582 748.903C437.467 748.903 437.355 748.867 437.261 748.801C437.168 748.734 437.097 748.64 437.06 748.531L414.228 584.242L368.49 748.667C368.405 748.784 368.279 748.863 368.136 748.887C367.994 748.912 367.848 748.88 367.73 748.798C367.611 748.716 367.529 748.591 367.501 748.45C367.473 748.308 367.502 748.162 367.581 748.041L413.937 582.715C413.995 582.632 414.076 582.566 414.169 582.524C414.262 582.483 414.365 582.468 414.466 582.481C414.567 582.495 414.663 582.537 414.741 582.602C414.82 582.667 414.88 582.752 414.913 582.849L438.104 748.175C438.132 748.258 438.141 748.347 438.128 748.434C438.115 748.521 438.082 748.603 438.031 748.675C437.98 748.746 437.913 748.805 437.834 748.845C437.756 748.885 437.67 748.906 437.582 748.906V748.903Z" fill="#E6E6E6"/>
<path d="M417.585 748.903C417.506 748.903 417.427 748.886 417.355 748.854C417.283 748.821 417.219 748.773 417.167 748.713C417.115 748.653 417.077 748.583 417.055 748.507C417.032 748.431 417.027 748.351 417.038 748.273L426.698 582.947C426.719 582.802 426.796 582.671 426.913 582.583C427.03 582.495 427.177 582.458 427.322 582.478C427.467 582.499 427.598 582.577 427.686 582.694C427.774 582.811 427.812 582.958 427.791 583.103L418.131 748.429C418.112 748.56 418.046 748.681 417.946 748.768C417.846 748.855 417.718 748.903 417.585 748.903Z" fill="#E6E6E6"/>
<path d="M504.039 545.792C504.405 547.239 504.311 548.764 503.769 550.155C503.228 551.546 502.267 552.734 501.019 553.553C500.641 553.804 500.239 554.017 499.819 554.19L397.249 596.414C395.489 597.138 393.514 597.134 391.758 596.402C390.001 595.671 388.606 594.273 387.88 592.514C387.521 591.643 387.337 590.71 387.339 589.768C387.341 588.826 387.528 587.894 387.89 587.024C388.253 586.155 388.782 585.365 389.45 584.7C390.117 584.035 390.909 583.509 391.78 583.15L494.35 540.925C494.373 540.914 494.398 540.906 494.423 540.901C495.371 540.521 496.39 540.349 497.41 540.395C498.431 540.441 499.43 540.705 500.34 541.168C501.251 541.631 502.051 542.284 502.689 543.082C503.327 543.88 503.787 544.805 504.038 545.795L504.039 545.792Z" fill="#E6E6E6"/>
<path d="M412.923 563.282C413.703 563.084 414.53 563.203 415.222 563.614C415.914 564.026 416.414 564.695 416.613 565.475L418.653 573.498C418.751 573.884 418.773 574.286 418.716 574.68C418.659 575.075 418.524 575.454 418.321 575.797C418.117 576.139 417.848 576.438 417.529 576.677C417.209 576.916 416.846 577.089 416.46 577.187V577.187C415.68 577.386 414.853 577.266 414.161 576.855C413.469 576.443 412.969 575.774 412.77 574.994L410.73 566.971C410.532 566.191 410.651 565.364 411.063 564.672C411.474 563.981 412.143 563.48 412.923 563.282V563.282Z" fill="#E6E6E6"/>
<path d="M405.66 563.335L417.427 560.342C417.923 560.217 418.449 560.294 418.888 560.556C419.328 560.818 419.645 561.244 419.772 561.739V561.739C419.834 561.985 419.848 562.241 419.812 562.492C419.775 562.743 419.69 562.985 419.561 563.203C419.431 563.421 419.26 563.611 419.057 563.763C418.853 563.915 418.622 564.025 418.376 564.088L406.613 567.08C406.367 567.142 406.111 567.155 405.86 567.119C405.609 567.083 405.368 566.997 405.15 566.867C404.932 566.738 404.741 566.566 404.589 566.363C404.438 566.159 404.327 565.928 404.265 565.682V565.682C404.139 565.186 404.215 564.66 404.477 564.22C404.738 563.779 405.164 563.461 405.66 563.335V563.335Z" fill="#E6E6E6"/>
<path d="M377.533 584.845C376.88 583.503 376.661 581.991 376.907 580.519C377.154 579.047 377.853 577.688 378.907 576.632C380.631 576.666 382.313 577.176 383.766 578.104C385.22 579.032 386.389 580.343 387.146 581.893C388.028 583.684 388.308 585.712 387.946 587.675C387.095 588.24 386.133 588.616 385.124 588.779C384.116 588.942 383.084 588.888 382.099 588.62C381.113 588.352 380.196 587.876 379.409 587.225C378.622 586.574 377.983 585.762 377.535 584.844L377.533 584.845Z" fill="#CCCCCC"/>
<path d="M633.037 757.608C633.068 756.814 628.862 756.005 623.643 755.802C618.424 755.598 614.168 756.077 614.137 756.871C614.106 757.665 618.312 758.474 623.531 758.677C628.75 758.881 633.006 758.402 633.037 757.608Z" fill="#E6E6E6"/>
<path d="M732.578 763.182C732.609 762.388 728.403 761.579 723.184 761.376C717.965 761.172 713.709 761.651 713.678 762.445C713.647 763.239 717.853 764.048 723.072 764.251C728.291 764.455 732.547 763.976 732.578 763.182Z" fill="#3F3D56"/>
<path d="M592.745 766.925C592.776 766.131 588.57 765.322 583.351 765.119C578.132 764.915 573.876 765.394 573.845 766.188C573.814 766.982 578.02 767.791 583.239 767.994C588.458 768.198 592.714 767.719 592.745 766.925Z" fill="#FF6584"/>
<path d="M700.096 775.921C700.127 775.127 695.921 774.318 690.702 774.115C685.483 773.911 681.227 774.39 681.196 775.184C681.165 775.978 685.371 776.787 690.59 776.99C695.809 777.194 700.065 776.715 700.096 775.921Z" fill="#FF6584"/>
<path d="M547.996 769.086C547.999 768.372 546.121 767.783 543.801 767.772C541.481 767.761 539.598 768.331 539.594 769.046C539.591 769.761 541.469 770.349 543.789 770.36C546.109 770.371 547.993 769.801 547.996 769.086Z" fill="#E6E6E6"/>
<path d="M586.421 774.446C586.425 773.732 584.546 773.143 582.226 773.132C579.906 773.121 578.023 773.691 578.019 774.406C578.016 775.121 579.894 775.709 582.214 775.72C584.534 775.731 586.418 775.161 586.421 774.446Z" fill="#E6E6E6"/>
<path d="M523.606 776.459C523.61 775.745 521.732 775.156 519.412 775.145C517.092 775.134 515.208 775.704 515.204 776.419C515.201 777.134 517.079 777.722 519.399 777.733C521.719 777.744 523.603 777.174 523.606 776.459Z" fill="#3F3D56"/>
<path d="M655.663 767.303C655.666 766.589 653.788 766 651.468 765.989C649.148 765.978 647.265 766.548 647.261 767.263C647.258 767.978 649.136 768.566 651.456 768.577C653.776 768.588 655.66 768.018 655.663 767.303Z" fill="#E6E6E6"/>
<path d="M610.821 762.092C610.825 761.378 608.947 760.789 606.627 760.778C604.306 760.767 602.423 761.337 602.419 762.052C602.416 762.767 604.294 763.355 606.614 763.366C608.934 763.377 610.818 762.807 610.821 762.092Z" fill="#FF6584"/>
<path d="M685.364 759.209C685.368 758.495 683.49 757.906 681.169 757.895C678.849 757.884 676.966 758.454 676.962 759.169C676.959 759.884 678.837 760.472 681.157 760.483C683.477 760.494 685.361 759.924 685.364 759.209Z" fill="#3F3D56"/>
<path d="M628.712 774.694C628.716 773.979 626.837 773.39 624.517 773.379C622.197 773.368 620.314 773.938 620.31 774.653C620.307 775.368 622.185 775.956 624.505 775.967C626.825 775.978 628.709 775.408 628.712 774.694Z" fill="#3F3D56"/>
<path d="M1315.64 1.00298H16.358C7.328 1.00898 0.01 5.10797 0 10.168V770.838C0.019 775.895 7.332 779.992 16.358 780.003H1315.64C1324.67 779.998 1331.99 775.898 1332 770.838V10.165C1331.99 5.10296 1324.67 1.00298 1315.64 1.00298ZM1327.33 770.838C1327.33 774.453 1322.09 777.383 1315.64 777.384H16.358C9.906 777.384 4.67598 774.453 4.67398 770.838V10.165C4.68498 6.55196 9.91 3.62497 16.358 3.61897H1315.64C1322.09 3.62497 1327.32 6.55196 1327.33 10.165V770.838ZM903.189 2.29597C901.88 1.85064 900.572 1.41731 899.263 0.995972H762.699C761.718 1.85997 760.783 2.73697 759.871 3.61397H907.116C905.807 3.16897 904.499 2.73698 903.19 2.29198L903.189 2.29597ZM0 260.832V280.34C0.584 280.366 1.192 280.366 1.776 280.379L0.608002 317.879L0 317.696V321.388L0.490997 321.532L0 337.256V391.456H4.67398V251.995C3.36531 254.823 1.80733 257.769 0 260.832ZM903.189 2.29597C901.88 1.85064 900.572 1.41731 899.263 0.995972H762.699C761.718 1.85997 760.783 2.73697 759.871 3.61397H907.116C905.807 3.16897 904.499 2.73698 903.19 2.29198L903.189 2.29597Z" fill="#3F3D56"/>
<path d="M1023.38 59.8199C1028.9 59.8199 1033.38 55.3428 1033.38 49.8199C1033.38 44.2971 1028.9 39.8199 1023.38 39.8199C1017.86 39.8199 1013.38 44.2971 1013.38 49.8199C1013.38 55.3428 1017.86 59.8199 1023.38 59.8199Z" fill="#6C63FF"/>
<path d="M809.397 93.8199C810.502 93.8199 811.397 92.9245 811.397 91.8199C811.397 90.7154 810.502 89.8199 809.397 89.8199C808.292 89.8199 807.397 90.7154 807.397 91.8199C807.397 92.9245 808.292 93.8199 809.397 93.8199Z" fill="#6C63FF"/>
<path d="M641.026 172.595C642.13 172.595 643.026 171.7 643.026 170.595C643.026 169.49 642.13 168.595 641.026 168.595C639.921 168.595 639.026 169.49 639.026 170.595C639.026 171.7 639.921 172.595 641.026 172.595Z" fill="#6C63FF"/>
<path d="M454.498 81.8199C455.603 81.8199 456.498 80.9245 456.498 79.8199C456.498 78.7154 455.603 77.8199 454.498 77.8199C453.393 77.8199 452.498 78.7154 452.498 79.8199C452.498 80.9245 453.393 81.8199 454.498 81.8199Z" fill="#FF6584"/>
<path d="M533.731 31.8199C534.836 31.8199 535.731 30.9245 535.731 29.8199C535.731 28.7154 534.836 27.8199 533.731 27.8199C532.626 27.8199 531.731 28.7154 531.731 29.8199C531.731 30.9245 532.626 31.8199 533.731 31.8199Z" fill="white"/>
<path d="M1086.36 20.8199C1087.46 20.8199 1088.36 19.9245 1088.36 18.8199C1088.36 17.7154 1087.46 16.8199 1086.36 16.8199C1085.26 16.8199 1084.36 17.7154 1084.36 18.8199C1084.36 19.9245 1085.26 20.8199 1086.36 20.8199Z" fill="white"/>
<path d="M915.042 54.8199C916.147 54.8199 917.042 53.9245 917.042 52.8199C917.042 51.7154 916.147 50.8199 915.042 50.8199C913.937 50.8199 913.042 51.7154 913.042 52.8199C913.042 53.9245 913.937 54.8199 915.042 54.8199Z" fill="white"/>
<path d="M1205.69 87.8199C1206.79 87.8199 1207.69 86.9245 1207.69 85.8199C1207.69 84.7154 1206.79 83.8199 1205.69 83.8199C1204.58 83.8199 1203.69 84.7154 1203.69 85.8199C1203.69 86.9245 1204.58 87.8199 1205.69 87.8199Z" fill="white"/>
<path d="M530.43 156.861C531.535 156.861 532.43 155.966 532.43 154.861C532.43 153.756 531.535 152.861 530.43 152.861C529.325 152.861 528.43 153.756 528.43 154.861C528.43 155.966 529.325 156.861 530.43 156.861Z" fill="white"/>
<path d="M277.874 114.82C278.979 114.82 279.874 113.925 279.874 112.82C279.874 111.715 278.979 110.82 277.874 110.82C276.769 110.82 275.874 111.715 275.874 112.82C275.874 113.925 276.769 114.82 277.874 114.82Z" fill="#FF6584"/>
<path d="M400.007 177.068L398.121 177.232L397.695 179.077L396.955 177.334L395.069 177.499L396.498 176.257L395.758 174.514L397.381 175.489L398.81 174.247L398.384 176.092L400.007 177.068Z" fill="white"/>
<path d="M798.004 29.9069L796.118 30.0709L795.692 31.9159L794.952 30.1729L793.066 30.3379L794.495 29.0959L793.755 27.3529L795.378 28.3279L796.807 27.0859L796.381 28.9309L798.004 29.9069Z" fill="white"/>
<path d="M986.268 110.907L984.382 111.071L983.956 112.916L983.216 111.173L981.33 111.338L982.759 110.096L982.019 108.353L983.642 109.328L985.071 108.086L984.645 109.931L986.268 110.907Z" fill="white"/>
<path d="M636.163 87.9069L634.277 88.0709L633.851 89.9159L633.111 88.1729L631.225 88.3379L632.654 87.0959L631.914 85.3529L633.537 86.3279L634.966 85.0859L634.54 86.9309L636.163 87.9069Z" fill="white"/>
<path d="M489.185 230.844L487.299 231.008L486.873 232.853L486.133 231.11L484.247 231.275L485.676 230.033L484.936 228.29L486.559 229.265L487.988 228.023L487.562 229.868L489.185 230.844Z" fill="white"/>
<path d="M1207.73 228.221L1205.84 228.385L1205.42 230.23L1204.68 228.487L1202.79 228.652L1204.22 227.41L1203.48 225.667L1205.1 226.642L1206.53 225.4L1206.1 227.245L1207.73 228.221Z" fill="white"/>
<path d="M312.48 58.9069L310.594 59.0709L310.168 60.9159L309.428 59.1729L307.542 59.3379L308.971 58.0959L308.231 56.3529L309.854 57.3279L311.283 56.0859L310.857 57.9309L312.48 58.9069Z" fill="white"/>
<path d="M712.538 552.521L715.803 501.944C715.948 499.802 716.929 497.802 718.535 496.377C720.141 494.951 722.243 494.214 724.387 494.325V494.325C725.496 494.382 726.583 494.665 727.579 495.156C728.576 495.647 729.462 496.335 730.184 497.18C730.906 498.024 731.448 499.007 731.777 500.067C732.107 501.128 732.217 502.245 732.101 503.35L727.101 555.784L725.401 587.773C726.719 588.414 727.808 589.446 728.52 590.727C729.231 592.009 729.531 593.479 729.378 594.937C729.225 596.395 728.627 597.77 727.666 598.876C726.704 599.983 725.425 600.766 724.002 601.12C722.58 601.474 721.083 601.382 719.715 600.856C718.346 600.329 717.174 599.394 716.355 598.178C715.537 596.962 715.113 595.523 715.14 594.058C715.168 592.592 715.646 591.17 716.51 589.986L712.538 552.521Z" fill="#A0616A"/>
<path d="M713.57 501.625C713.213 501.235 712.994 500.74 712.946 500.214C712.899 499.687 713.025 499.16 713.306 498.713C713.642 498.154 713.796 497.505 713.745 496.855C713.734 496.73 713.714 496.605 713.687 496.482C713.502 495.745 713.499 494.974 713.676 494.235C713.853 493.496 714.206 492.811 714.705 492.238C716.373 490.375 717.25 487.495 717.677 484.916C717.979 482.068 718.623 479.267 719.596 476.573C721.226 472.781 724.914 469.482 729.719 471.297C731.751 472.101 733.444 473.581 734.512 475.487C736.798 479.443 736.656 484.121 736.477 488.595L737.413 486.858C737.132 491.741 737.841 496.631 739.496 501.234C738.419 500.985 737.596 502.414 737.913 503.474C738.366 504.487 739.077 505.363 739.974 506.016C740.987 506.972 741.926 508.372 740.894 509.74C740.638 510.06 740.318 510.324 739.955 510.515C739.592 510.706 739.194 510.819 738.785 510.849C731.068 511.571 723.285 510.689 715.925 508.259C714.291 507.718 712.544 506.986 711.738 505.465C710.932 503.944 711.851 501.54 713.57 501.625Z" fill="#656464"/>
<path d="M778.547 759.049H787.468L791.711 724.657H778.551L778.547 759.049Z" fill="#A0616A"/>
<path d="M778.207 755.896L792.452 755.046V761.146L805.995 770.499C806.664 770.961 807.168 771.624 807.433 772.393C807.698 773.161 807.711 773.994 807.469 774.77C807.227 775.546 806.743 776.225 806.088 776.706C805.434 777.188 804.642 777.448 803.829 777.448H786.87L783.947 771.411L782.806 777.448H776.412L778.207 755.896Z" fill="#2F2E41"/>
<path d="M730.235 753.094L738.535 756.34L755.013 725.85L742.756 721.059L730.235 753.094Z" fill="#A0616A"/>
<path d="M728.195 750.334L741.772 754.728L739.55 760.412L748.759 774.054C749.214 774.728 749.442 775.529 749.409 776.342C749.377 777.154 749.085 777.935 748.577 778.57C748.069 779.205 747.371 779.661 746.586 779.871C745.8 780.081 744.968 780.034 744.211 779.738L728.411 773.564L727.886 766.877L724.625 772.084L718.669 769.756L728.195 750.334Z" fill="#2F2E41"/>
<path d="M736.419 540.948H778.019C778.019 540.948 793.685 652.828 793.728 653.032C793.771 653.236 784.887 656.467 788.928 660.506L792.967 664.545C796.198 667.776 790.567 678.818 790.567 678.818L797.004 744.518H770.418L757.428 608.803L775.008 673.867L752.108 744.518L735.621 734.824L732.39 725.938L738.809 719.519C738.809 719.519 740.468 709.871 740.468 704.172C740.468 698.473 735.621 703.32 740.468 698.472C742.568 696.372 748.468 670.644 748.468 670.644L729.149 608.803L724.549 581.203C723.366 574.087 724.43 566.78 727.595 560.298C730.152 555.048 733.375 548.177 736.419 540.948Z" fill="#2F2E41"/>
<path d="M736.736 470.279L739.501 461.985C740.116 460.14 741.268 458.52 742.81 457.334C744.352 456.149 746.213 455.451 748.155 455.33L750.611 455.177C752.796 455.041 754.964 455.644 756.765 456.889C758.566 458.134 759.896 459.949 760.542 462.041V462.041C761.108 463.892 762.214 465.532 763.718 466.751C765.222 467.969 767.055 468.711 768.983 468.882C776.163 469.494 786.82 471.665 786.82 479.165C786.82 490.475 774.703 520.365 777.126 522.787C779.549 525.209 785.204 535.197 781.973 538.136C781.131 538.902 781.81 542.584 782.08 545.222C782.568 549.999 748.853 539.438 739.159 542.175C729.465 544.912 734.312 524.403 732.696 522.787C731.18 520.938 729.828 518.96 728.656 516.876C728.085 515.916 727.683 514.866 727.468 513.77L724.686 499.688C724.64 499.454 724.603 499.224 724.574 498.988C724.206 495.974 722.054 475.694 730.274 472.704C739.159 469.471 736.736 470.279 736.736 470.279Z" fill="#656464"/>
<path d="M779.064 556.688L777.792 506.021C777.745 503.874 778.543 501.795 780.015 500.232C781.487 498.668 783.514 497.747 785.66 497.665V497.665C786.77 497.623 787.877 497.807 788.914 498.207C789.95 498.607 790.895 499.214 791.689 499.99C792.483 500.767 793.111 501.697 793.534 502.724C793.958 503.751 794.167 504.854 794.15 505.965L793.858 558.636L795.03 590.648C796.4 591.169 797.577 592.099 798.401 593.311C799.224 594.524 799.654 595.961 799.633 597.427C799.611 598.893 799.139 600.316 798.28 601.504C797.421 602.692 796.217 603.587 794.832 604.067C793.447 604.547 791.948 604.589 790.538 604.187C789.128 603.785 787.876 602.959 786.952 601.821C786.028 600.683 785.477 599.288 785.373 597.826C785.27 596.364 785.619 594.905 786.373 593.648L779.064 556.688Z" fill="#A0616A"/>
<path d="M775.526 502.979C775.136 502.623 774.873 502.149 774.778 501.629C774.684 501.109 774.762 500.573 775.002 500.102C775.287 499.516 775.382 498.855 775.273 498.212C775.251 498.088 775.22 497.965 775.181 497.845C774.931 497.127 774.859 496.36 774.969 495.608C775.079 494.856 775.37 494.142 775.815 493.527C777.31 491.527 777.925 488.576 778.12 485.968C778.165 483.105 778.554 480.258 779.281 477.489C780.565 473.566 783.943 469.95 788.891 471.329C790.987 471.948 792.805 473.27 794.039 475.073C796.67 478.808 796.947 483.48 797.169 487.953L797.946 486.139C798.103 491.028 799.247 495.835 801.307 500.271C800.212 500.119 799.524 501.616 799.93 502.643C800.472 503.611 801.258 504.42 802.21 504.99C803.305 505.852 804.365 507.162 803.459 508.617C803.233 508.959 802.938 509.25 802.594 509.472C802.25 509.695 801.864 509.844 801.459 509.91C793.838 511.32 786.007 511.138 778.459 509.376C776.783 508.984 774.978 508.411 774.039 506.968C773.1 505.525 773.806 503.047 775.526 502.979Z" fill="#656464"/>
<path d="M750.077 465.938C759.892 465.938 767.849 457.981 767.849 448.166C767.849 438.351 759.892 430.394 750.077 430.394C740.262 430.394 732.305 438.351 732.305 448.166C732.305 457.981 740.262 465.938 750.077 465.938Z" fill="#A0616A"/>
<path d="M726.324 473.061C726.334 470.98 729.065 469.89 731.045 470.542C733.025 471.194 734.44 472.877 736.027 474.214C737.614 475.551 739.827 476.632 741.727 475.794C743.527 474.994 744.259 472.86 745.61 471.428C747.241 469.908 749.374 469.041 751.602 468.99C751.557 468.79 751.512 468.584 751.485 468.382C751.303 467.311 751.258 466.222 751.35 465.14C751.805 466.066 752.401 466.915 753.117 467.657C753.569 468.128 754.07 468.549 754.611 468.914C756.846 469.089 759.094 468.92 761.278 468.414C763.887 467.645 766.33 465.338 766.125 462.614C765.962 461.612 765.563 460.664 764.961 459.846C764.359 459.029 763.572 458.367 762.663 457.914C760.91 456.9 767.056 452.401 765.225 451.541C763.465 450.764 761.879 449.639 760.565 448.234C759.251 446.828 758.234 445.172 757.577 443.363C757.043 441.757 756.897 440.047 757.153 438.373C757.409 436.7 758.058 435.111 759.048 433.738C760.665 433.538 754.263 434.302 755.797 433.738C755.616 432.667 755.541 434.465 755.634 433.386C756.087 434.315 756.718 432.273 757.434 433.013C758.806 432.319 759.878 431.147 760.447 429.719C761.619 426.594 759.631 425.982 757.047 423.862C755.089 422.257 752.778 421.141 750.304 420.604C747.83 420.067 745.264 420.125 742.817 420.774C740.369 421.423 738.111 422.644 736.228 424.336C734.345 426.028 732.891 428.143 731.985 430.507C728.073 428.55 723.041 430.394 720.305 433.814C717.569 437.234 716.755 441.814 716.723 446.186C716.674 455.993 720.073 465.505 726.324 473.061V473.061Z" fill="#2F2E41"/>
<path d="M599.173 768.598H590.848L586.888 736.489H599.174L599.173 768.598Z" fill="#FFB6B6"/>
<path d="M599.654 777.366H574.054V777.042C574.054 774.4 575.104 771.865 576.972 769.997C578.84 768.128 581.375 767.078 584.017 767.078V767.078L588.693 763.531L597.417 767.079H599.654V777.366Z" fill="#2F2E41"/>
<path d="M641.057 768.363H632.733L628.773 736.254H641.064L641.057 768.363Z" fill="#FFB6B6"/>
<path d="M642.157 777.298H616.557V776.974C616.557 774.331 617.607 771.797 619.475 769.929C621.344 768.06 623.878 767.01 626.52 767.01V767.01L631.196 763.463L639.92 767.011H642.155L642.157 777.298Z" fill="#2F2E41"/>
<path d="M579.932 564.716C579.932 564.716 566.479 581.403 569.087 585.728C571.695 590.053 575.899 588.556 571.695 593.088C567.491 597.62 565.807 597.674 568.751 601.01C571.695 604.346 574.251 677.274 574.251 677.274L587.669 753.162L602.435 754.493C602.435 754.493 605.19 745.218 605.257 741.623C605.324 738.028 605.324 741.16 605.324 733.709C605.324 726.258 602.667 732.03 605.257 724.94C607.847 717.85 611.075 696.963 605.257 686.808C599.439 676.653 604.012 685.563 604.012 685.563L608.519 616.741L617.096 687.583C617.096 687.583 617.096 711.965 621.296 729.621L621.996 754.493L640.115 753.8C640.115 753.8 644.842 746.436 643.161 738.028C641.48 729.62 648.206 725.417 648.206 721.213C648.206 717.009 647.852 676.798 647.852 676.798L643.923 593.088C643.923 593.088 647.365 574.079 639.799 566.513C632.233 558.947 579.932 564.716 579.932 564.716Z" fill="#2F2E41"/>
<path d="M595.975 470.42L607.586 457.347L625.932 459.388L637.678 475.826C650.66 478.814 653.053 489.426 650.778 502.552C646.22 528.798 634.968 547.145 640.078 560.095C647.842 579.753 644.078 594.88 625.492 592.124C606.906 589.368 564.08 571.168 576.151 559.096C588.222 547.024 584.531 531.603 584.531 531.603L585.905 494.545C583.735 482.775 584.07 471.655 595.974 470.423L595.975 470.42Z" fill="#656464"/>
<path d="M592.231 515.031L579.296 506.69C571.018 512.37 542.569 540.717 542.569 540.717L514.231 566.701C513.052 566.898 511.946 567.402 511.024 568.162C510.102 568.923 509.397 569.912 508.979 571.032C508.562 572.152 508.447 573.362 508.646 574.54C508.845 575.719 509.351 576.824 510.113 577.745C510.875 578.665 511.866 579.369 512.987 579.784C514.107 580.2 515.318 580.312 516.496 580.111C517.674 579.91 518.778 579.402 519.697 578.638C520.616 577.874 521.318 576.881 521.731 575.76L556.931 543.969L592.231 515.031Z" fill="#FFB6B6"/>
<path d="M606.477 473.507C608.468 474.823 610.144 476.562 611.386 478.599C612.628 480.636 613.406 482.923 613.665 485.295C613.923 487.667 613.656 490.067 612.881 492.324C612.106 494.582 610.844 496.64 609.183 498.354L602.42 505.333C602.42 505.333 569.732 542.715 560.382 546.992L536.982 563.003L524.382 553.06L544.806 531.932C544.806 531.932 571.251 512.582 571.435 505.255C571.547 500.768 577.582 487.861 584.004 478.055C585.18 476.279 586.694 474.752 588.461 473.562C590.227 472.372 592.211 471.542 594.298 471.12C596.386 470.697 598.536 470.691 600.626 471.1C602.716 471.509 604.705 472.327 606.479 473.506L606.477 473.507Z" fill="#656464"/>
<path d="M635.475 448.073C638.993 438.207 633.847 427.358 623.982 423.84C614.116 420.322 603.266 425.468 599.749 435.334C596.231 445.199 601.377 456.049 611.242 459.567C621.108 463.085 631.957 457.939 635.475 448.073Z" fill="#FFB6B6"/>
<path d="M609.682 418.991C610.478 417.602 611.577 416.411 612.896 415.504C613.53 415.134 614.234 414.902 614.964 414.823C615.693 414.744 616.431 414.82 617.13 415.045C617.828 415.27 618.471 415.641 619.017 416.131C619.562 416.622 619.998 417.222 620.296 417.893C620.306 416.981 620.534 416.086 620.961 415.28C622.044 416.37 623.293 417.281 624.661 417.98L622.671 413.54C630.215 412.968 635.54 415.04 637.933 420.616C638.618 422.216 641.194 422.186 641.948 423.85C642.702 425.514 641.827 428.178 640.07 428.329C643.448 428.269 642.411 431.117 643.403 434.545C644.395 437.973 643.836 441.829 642.724 445.367C641.282 449.955 637.236 452.958 633.285 455.305C630.701 456.84 625.557 459.169 625.53 459.182C611.323 466.638 602.266 451.427 605.648 436.414C606.412 433.023 609.182 429.347 607.197 426.805C605.651 424.826 602.724 425.191 600.271 425.714C601.22 422.427 607.834 421.854 609.682 418.991Z" fill="#2F2E41"/>
<path d="M1003.96 758.891C1003.99 758.097 999.381 757.273 993.663 757.05C987.946 756.827 983.286 757.29 983.255 758.084C983.224 758.878 987.834 759.703 993.551 759.926C999.269 760.149 1003.93 759.686 1003.96 758.891Z" fill="#E6E6E6"/>
<path d="M1114.3 764.688C1114.33 763.894 1109.72 763.07 1104 762.847C1098.28 762.624 1093.62 763.087 1093.59 763.881C1093.56 764.675 1098.17 765.5 1103.89 765.723C1109.61 765.945 1114.27 765.482 1114.3 764.688Z" fill="#3F3D56"/>
<path d="M959.845 768.118C959.876 767.324 955.267 766.5 949.549 766.277C943.832 766.054 939.172 766.517 939.141 767.311C939.11 768.105 943.72 768.93 949.437 769.153C955.154 769.376 959.814 768.913 959.845 768.118Z" fill="#FF6584"/>
<path d="M1077.59 777.356C1077.62 776.562 1073.01 775.738 1067.3 775.515C1061.58 775.292 1056.92 775.755 1056.89 776.549C1056.86 777.343 1061.47 778.168 1067.18 778.391C1072.9 778.614 1077.56 778.15 1077.59 777.356Z" fill="#FF6584"/>
<path d="M908.747 770.171C908.753 769.456 906.698 768.86 904.156 768.838C901.615 768.817 899.55 769.379 899.544 770.094C899.538 770.809 901.593 771.405 904.135 771.426C906.676 771.447 908.741 770.885 908.747 770.171Z" fill="#E6E6E6"/>
<path d="M950.885 775.618C950.891 774.903 948.836 774.307 946.294 774.285C943.753 774.264 941.688 774.826 941.682 775.541C941.676 776.256 943.731 776.852 946.273 776.873C948.814 776.894 950.879 776.332 950.885 775.618Z" fill="#E6E6E6"/>
<path d="M882.065 777.491C882.071 776.776 880.015 776.18 877.473 776.158C874.932 776.137 872.867 776.699 872.861 777.414C872.855 778.129 874.91 778.725 877.452 778.746C879.993 778.767 882.059 778.205 882.065 777.491Z" fill="#3F3D56"/>
<path d="M1026.71 768.63C1026.72 767.915 1024.66 767.318 1022.12 767.297C1019.58 767.276 1017.52 767.838 1017.51 768.553C1017.5 769.268 1019.56 769.864 1022.1 769.885C1024.64 769.906 1026.71 769.344 1026.71 768.63Z" fill="#E6E6E6"/>
<path d="M977.544 763.318C977.55 762.603 975.494 762.006 972.952 761.985C970.411 761.964 968.346 762.526 968.34 763.241C968.334 763.956 970.389 764.552 972.931 764.573C975.472 764.594 977.538 764.032 977.544 763.318Z" fill="#FF6584"/>
<path d="M1059.21 760.602C1059.22 759.887 1057.16 759.29 1054.62 759.269C1052.08 759.248 1050.01 759.81 1050.01 760.525C1050 761.24 1052.06 761.836 1054.6 761.857C1057.14 761.878 1059.2 761.316 1059.21 760.602Z" fill="#3F3D56"/>
<path d="M997.227 775.96C997.233 775.245 995.178 774.649 992.636 774.627C990.095 774.606 988.03 775.168 988.024 775.883C988.018 776.598 990.073 777.194 992.615 777.215C995.156 777.236 997.221 776.674 997.227 775.96Z" fill="#3F3D56"/>
<path d="M361.99 758.608C362.021 757.814 357.815 757.005 352.596 756.802C347.377 756.598 343.121 757.077 343.09 757.871C343.059 758.665 347.265 759.474 352.484 759.677C357.703 759.881 361.959 759.402 361.99 758.608Z" fill="#E6E6E6"/>
<path d="M461.531 764.182C461.562 763.388 457.356 762.579 452.137 762.376C446.918 762.172 442.662 762.651 442.631 763.445C442.6 764.239 446.806 765.048 452.025 765.251C457.244 765.455 461.5 764.976 461.531 764.182Z" fill="#3F3D56"/>
<path d="M321.698 767.925C321.729 767.131 317.523 766.322 312.304 766.119C307.085 765.915 302.829 766.394 302.798 767.188C302.767 767.982 306.973 768.791 312.192 768.994C317.411 769.198 321.667 768.719 321.698 767.925Z" fill="#FF6584"/>
<path d="M429.049 776.921C429.08 776.127 424.874 775.318 419.655 775.115C414.436 774.911 410.18 775.39 410.149 776.184C410.118 776.978 414.324 777.787 419.543 777.99C424.762 778.194 429.018 777.715 429.049 776.921Z" fill="#FF6584"/>
<path d="M278.356 770.086C278.36 769.372 276.482 768.783 274.162 768.772C271.842 768.761 269.958 769.331 269.954 770.046C269.951 770.761 271.829 771.349 274.149 771.36C276.469 771.371 278.353 770.801 278.356 770.086Z" fill="#E6E6E6"/>
<path d="M316.782 775.446C316.786 774.732 314.908 774.143 312.587 774.132C310.267 774.121 308.384 774.691 308.38 775.406C308.377 776.121 310.255 776.709 312.575 776.72C314.895 776.731 316.779 776.161 316.782 775.446Z" fill="#E6E6E6"/>
<path d="M157.243 777.46C157.247 776.746 155.369 776.157 153.049 776.146C150.728 776.135 148.845 776.705 148.841 777.42C148.838 778.135 150.716 778.723 153.036 778.734C155.356 778.745 157.24 778.175 157.243 777.46Z" fill="#3F3D56"/>
<path d="M386.024 768.303C386.028 767.589 384.15 767 381.829 766.989C379.509 766.978 377.626 767.548 377.622 768.263C377.619 768.978 379.497 769.566 381.817 769.577C384.137 769.588 386.021 769.018 386.024 768.303Z" fill="#E6E6E6"/>
<path d="M341.181 763.092C341.185 762.378 339.306 761.789 336.986 761.778C334.666 761.767 332.783 762.337 332.779 763.052C332.776 763.767 334.654 764.355 336.974 764.366C339.294 764.377 341.178 763.807 341.181 763.092Z" fill="#FF6584"/>
<path d="M415.725 760.209C415.728 759.495 413.85 758.906 411.53 758.895C409.21 758.884 407.327 759.454 407.323 760.169C407.32 760.884 409.198 761.472 411.518 761.483C413.838 761.494 415.722 760.924 415.725 760.209Z" fill="#3F3D56"/>
<path d="M359.072 775.694C359.076 774.979 357.198 774.39 354.877 774.379C352.557 774.368 350.674 774.938 350.67 775.653C350.667 776.368 352.545 776.956 354.865 776.967C357.185 776.978 359.069 776.408 359.072 775.694Z" fill="#3F3D56"/>
<path d="M1101.66 700.787C1088.47 700.787 1075.71 696.075 1065.68 687.5C1062.33 684.637 1058.77 679.659 1055.08 672.705C1052.73 668.226 1051.42 663.277 1051.23 658.222C1051.04 653.167 1051.99 648.134 1054.01 643.495C1052.07 645.472 1049.92 647.235 1047.6 648.754L1046.43 649.534L1046.36 648.129C1046.32 647.215 1046.29 646.304 1046.29 645.421C1046.29 640.221 1050.23 634.941 1048.41 630.133C1040.77 609.868 1016.51 589.733 1051.66 558.366C1054.92 555.466 1050.57 549.666 1050.57 545.275C1050.57 502.256 1097.31 437.725 1128.6 467.258C1146.87 484.497 1184.92 496.743 1202.69 520.722L1202.92 521.432L1202.23 521.712C1198.68 523.204 1194.94 524.198 1191.12 524.667C1195.19 525.498 1199.35 525.846 1203.51 525.705L1204.15 525.682L1204.31 526.308C1205.86 532.511 1206.64 538.88 1206.64 545.273V545.964C1206.62 550.819 1207.63 555.623 1209.6 560.063C1211.56 564.502 1214.44 568.477 1218.05 571.729C1223.75 576.923 1228.3 583.247 1231.41 590.297C1234.53 597.347 1236.14 604.97 1236.15 612.678C1236.15 621.798 1229.95 633.769 1224.75 642.206C1223.43 644.355 1221.64 646.177 1219.52 647.537C1217.4 648.897 1215 649.758 1212.49 650.057C1210.12 650.356 1207.71 650.13 1205.44 649.396C1203.17 648.661 1201.08 647.436 1199.33 645.806C1201.79 650.755 1205 655.296 1208.84 659.27L1209.55 660.001L1208.67 660.514C1200.21 665.451 1190.58 668.05 1180.78 668.046H1180.21C1165.33 668.046 1151.21 673.81 1141.46 683.86C1136.29 689.19 1130.1 693.433 1123.27 696.34C1116.43 699.247 1109.08 700.76 1101.66 700.789L1101.66 700.787Z" fill="#6C63FF"/>
<path d="M1086.77 773.112C1086.53 773.111 1086.3 773.024 1086.12 772.867C1085.94 772.71 1085.82 772.494 1085.78 772.257C1085.74 771.957 1081.6 742.076 1085.32 702.357C1088.76 665.677 1099.79 612.845 1132.85 569.457C1133.02 569.273 1133.25 569.16 1133.5 569.138C1133.75 569.116 1134 569.187 1134.2 569.339C1134.39 569.49 1134.53 569.709 1134.57 569.954C1134.62 570.2 1134.57 570.453 1134.44 570.664C1101.66 613.679 1090.71 666.123 1087.3 702.544C1083.6 742.03 1087.71 771.681 1087.75 771.976C1087.77 772.117 1087.76 772.261 1087.72 772.397C1087.68 772.534 1087.61 772.66 1087.52 772.768C1087.42 772.875 1087.31 772.962 1087.18 773.021C1087.05 773.08 1086.91 773.111 1086.77 773.112H1086.77Z" fill="#3F3D56"/>
<path d="M1099.38 642.681C1099.17 642.678 1098.96 642.61 1098.8 642.486C1098.63 642.362 1098.5 642.189 1098.44 641.991C1098.37 641.792 1098.37 641.579 1098.44 641.38C1098.5 641.181 1098.62 641.006 1098.79 640.881C1108.21 634.504 1118.39 629.323 1129.09 625.458C1145.81 619.338 1171.22 613.791 1197.39 622.119C1197.62 622.215 1197.81 622.394 1197.91 622.62C1198.02 622.847 1198.04 623.105 1197.96 623.344C1197.89 623.583 1197.72 623.784 1197.51 623.909C1197.29 624.034 1197.03 624.073 1196.79 624.019C1171.16 615.862 1146.2 621.319 1129.78 627.331C1119.25 631.13 1109.24 636.224 1099.97 642.495C1099.8 642.619 1099.59 642.685 1099.38 642.685L1099.38 642.681Z" fill="#3F3D56"/>
<path d="M1079.18 521.01C1079.17 520.801 1079.22 520.594 1079.33 520.417C1079.44 520.241 1079.61 520.103 1079.8 520.025C1079.99 519.946 1080.21 519.93 1080.41 519.978C1080.61 520.027 1080.8 520.138 1080.93 520.296C1087.97 529.233 1093.87 539.01 1098.5 549.403C1105.8 565.634 1113.17 590.587 1106.75 617.286C1106.67 617.522 1106.5 617.719 1106.28 617.839C1106.06 617.959 1105.81 617.993 1105.57 617.935C1105.32 617.876 1105.11 617.73 1104.97 617.524C1104.83 617.317 1104.78 617.067 1104.81 616.82C1111.1 590.668 1103.86 566.168 1096.68 550.22C1092.13 539.994 1086.33 530.373 1079.41 521.579C1079.28 521.419 1079.19 521.219 1079.18 521.01V521.01Z" fill="#3F3D56"/>
<path d="M211.794 686.403C202.049 676.353 187.927 670.589 173.05 670.589H172.476C162.677 670.593 153.052 667.993 144.587 663.057L143.706 662.544L144.416 661.813C148.257 657.839 151.465 653.298 153.926 648.349C152.178 649.979 150.093 651.204 147.819 651.939C145.545 652.673 143.137 652.899 140.766 652.6C138.263 652.301 135.86 651.44 133.737 650.08C131.614 648.72 129.827 646.898 128.509 644.749C123.309 636.312 117.109 624.341 117.109 615.221C117.117 607.513 118.73 599.891 121.846 592.841C124.963 585.791 129.514 579.467 135.209 574.273C138.815 571.021 141.696 567.046 143.662 562.606C145.629 558.167 146.638 553.363 146.624 548.507V547.816C146.623 541.419 147.405 535.046 148.953 528.839L149.107 528.224L149.751 528.247C153.907 528.388 158.065 528.04 162.14 527.209C158.318 526.74 154.579 525.746 151.029 524.254L150.336 523.973L150.571 523.263C168.338 499.285 206.391 487.038 224.655 469.799C255.945 440.265 302.687 504.799 302.687 547.816C302.687 552.206 298.343 558.006 301.595 560.907C336.75 592.27 312.495 612.407 304.846 632.674C303.032 637.482 306.966 642.76 306.966 647.962C306.966 648.845 306.943 649.756 306.899 650.67L306.831 652.076L305.659 651.296C303.34 649.777 301.19 648.014 299.247 646.037C301.263 650.676 302.213 655.709 302.027 660.764C301.842 665.819 300.525 670.768 298.174 675.247C294.49 682.2 290.926 687.179 287.58 690.042C276.864 699.212 263.05 703.942 248.962 703.266C234.875 702.589 221.577 696.556 211.79 686.401L211.794 686.403Z" fill="#6C63FF"/>
<path d="M283.561 778.363C283.8 778.362 284.031 778.275 284.212 778.118C284.392 777.961 284.51 777.745 284.545 777.508C284.587 777.208 288.731 747.327 285.01 707.608C281.573 670.928 270.536 618.096 237.475 574.708C237.306 574.524 237.075 574.411 236.827 574.389C236.579 574.367 236.331 574.438 236.133 574.59C235.935 574.741 235.8 574.96 235.755 575.205C235.711 575.451 235.759 575.704 235.891 575.915C268.667 618.93 279.615 671.374 283.028 707.795C286.728 747.281 282.617 776.932 282.575 777.227C282.556 777.368 282.567 777.512 282.607 777.648C282.648 777.785 282.717 777.911 282.811 778.019C282.904 778.126 283.02 778.213 283.149 778.272C283.279 778.331 283.42 778.362 283.562 778.363H283.561Z" fill="#3F3D56"/>
<path d="M251.748 601.339C251.956 601.336 252.159 601.268 252.327 601.144C252.495 601.02 252.62 600.847 252.685 600.649C252.749 600.45 252.75 600.236 252.687 600.037C252.624 599.838 252.501 599.664 252.334 599.539C242.912 593.162 232.734 587.981 222.034 584.116C205.319 577.996 179.901 572.449 153.734 580.777C153.598 580.807 153.471 580.865 153.359 580.947C153.247 581.029 153.154 581.134 153.085 581.254C153.016 581.374 152.972 581.507 152.957 581.645C152.942 581.783 152.956 581.922 152.998 582.054C153.039 582.186 153.108 582.308 153.2 582.413C153.291 582.517 153.403 582.601 153.529 582.659C153.654 582.718 153.791 582.75 153.929 582.753C154.068 582.756 154.206 582.73 154.334 582.677C179.965 574.52 204.923 579.977 221.346 585.989C231.873 589.788 241.887 594.882 251.157 601.153C251.326 601.276 251.531 601.343 251.741 601.343L251.748 601.339Z" fill="#3F3D56"/>
<path d="M291.268 530.074C291.28 529.865 291.227 529.658 291.116 529.482C291.004 529.305 290.84 529.167 290.647 529.089C290.453 529.01 290.24 528.994 290.037 529.042C289.834 529.091 289.651 529.202 289.514 529.36C282.475 538.297 276.575 548.074 271.949 558.467C264.642 574.698 257.278 599.651 263.7 626.35C263.72 626.488 263.768 626.62 263.842 626.738C263.916 626.856 264.013 626.957 264.129 627.035C264.244 627.113 264.374 627.167 264.511 627.192C264.648 627.216 264.789 627.212 264.924 627.18C265.059 627.147 265.186 627.087 265.297 627.002C265.407 626.918 265.499 626.811 265.566 626.689C265.633 626.567 265.674 626.433 265.686 626.294C265.698 626.155 265.681 626.016 265.636 625.884C259.346 599.732 266.585 575.232 273.765 559.284C278.314 549.058 284.117 539.438 291.041 530.644C291.175 530.483 291.254 530.283 291.268 530.074V530.074Z" fill="#3F3D56"/>
<path d="M237.814 149.326L135.395 150.804L135.424 152.804L237.843 151.325L237.814 149.326Z" fill="#E6E6E6"/>
<path d="M265.587 179.006C264.492 178.469 263.633 177.547 263.174 176.418C262.715 175.288 262.687 174.029 263.096 172.88C263.506 171.731 264.323 170.773 265.393 170.188C266.463 169.604 267.711 169.433 268.899 169.709C270.087 169.985 271.132 170.688 271.835 171.685C272.537 172.681 272.849 173.902 272.71 175.113C272.571 176.325 271.991 177.443 271.081 178.254C270.171 179.066 268.994 179.514 267.774 179.514C267.016 179.514 266.268 179.34 265.587 179.006V179.006ZM266.801 171.675C266.428 171.802 266.084 172.003 265.789 172.264C265.494 172.525 265.254 172.842 265.082 173.197C264.777 173.822 264.698 174.534 264.858 175.211C265.019 175.888 265.41 176.489 265.964 176.91C266.517 177.332 267.2 177.548 267.896 177.522C268.591 177.496 269.256 177.229 269.777 176.768C270.298 176.307 270.643 175.679 270.753 174.992C270.863 174.305 270.731 173.601 270.38 173C270.029 172.399 269.48 171.938 268.828 171.697C268.175 171.455 267.459 171.448 266.801 171.675V171.675Z" fill="#E6E6E6"/>
<path d="M330.322 258.566C340.263 258.566 348.322 250.507 348.322 240.566C348.322 230.625 340.263 222.566 330.322 222.566C320.381 222.566 312.322 230.625 312.322 240.566C312.322 250.507 320.381 258.566 330.322 258.566Z" fill="#3F3D56"/>
<path d="M1114.07 86.4482L1114.04 88.448L1216.46 89.9264L1216.49 87.9266L1114.07 86.4482Z" fill="#E6E6E6"/>
<path d="M1028.44 93.196C1027.21 93.1987 1026.02 92.7482 1025.1 91.9306C1024.18 91.1129 1023.6 89.9853 1023.46 88.7628C1023.31 87.5403 1023.63 86.3085 1024.34 85.3024C1025.05 84.2963 1026.1 83.5863 1027.3 83.3079C1028.5 83.0294 1029.76 83.202 1030.84 83.7927C1031.92 84.3835 1032.74 85.3509 1033.15 86.5106C1033.56 87.6703 1033.53 88.941 1033.07 90.0804C1032.6 91.2197 1031.74 92.148 1030.63 92.688C1029.95 93.0206 1029.2 93.1943 1028.44 93.196V93.196ZM1028.44 85.196C1027.78 85.1965 1027.15 85.409 1026.63 85.8013C1026.11 86.1935 1025.73 86.7443 1025.55 87.3704C1025.38 87.9965 1025.4 88.6638 1025.64 89.2718C1025.87 89.8797 1026.3 90.3951 1026.85 90.7402C1027.4 91.0853 1028.05 91.2413 1028.7 91.1846C1029.35 91.128 1029.96 90.8617 1030.45 90.4262C1030.93 89.9906 1031.26 89.4093 1031.38 88.7701C1031.51 88.1309 1031.42 87.4685 1031.14 86.883V86.883C1030.89 86.3773 1030.5 85.9511 1030.03 85.6528C1029.55 85.3546 1029 85.1963 1028.44 85.196V85.196Z" fill="#E6E6E6"/>
<path d="M1180.19 240.559C1190.13 240.559 1198.19 232.5 1198.19 222.559C1198.19 212.618 1190.13 204.559 1180.19 204.559C1170.25 204.559 1162.19 212.618 1162.19 222.559C1162.19 232.5 1170.25 240.559 1180.19 240.559Z" fill="#3F3D56"/>
<path d="M922.361 190.11L902.648 290.625L904.611 291.01L924.324 190.495L922.361 190.11Z" fill="#E6E6E6"/>
<path d="M924.11 174.292C924.327 173.081 924.982 171.991 925.951 171.232C926.919 170.473 928.133 170.097 929.361 170.176C930.589 170.254 931.746 170.783 932.609 171.659C933.473 172.536 933.983 173.7 934.044 174.929C934.104 176.158 933.71 177.367 932.936 178.324C932.162 179.281 931.063 179.919 929.849 180.118C928.634 180.316 927.389 180.061 926.351 179.4C925.313 178.739 924.554 177.719 924.22 176.535C924.014 175.805 923.977 175.038 924.11 174.292V174.292ZM931.987 175.712C932.103 175.071 932.008 174.41 931.716 173.828C931.423 173.246 930.949 172.775 930.365 172.487C929.782 172.198 929.12 172.107 928.48 172.228C927.84 172.348 927.256 172.674 926.818 173.155C926.379 173.637 926.109 174.248 926.048 174.896C925.988 175.544 926.14 176.195 926.481 176.75C926.823 177.304 927.336 177.732 927.942 177.97C928.549 178.207 929.216 178.24 929.843 178.065C930.385 177.912 930.872 177.61 931.251 177.194C931.629 176.778 931.883 176.264 931.984 175.71L931.987 175.712Z" fill="#E6E6E6"/>
<path d="M888.605 369.224C898.546 369.224 906.605 361.165 906.605 351.224C906.605 341.283 898.546 333.224 888.605 333.224C878.664 333.224 870.605 341.283 870.605 351.224C870.605 361.165 878.664 369.224 888.605 369.224Z" fill="#3F3D56"/>
</svg>
