<svg width="29" height="23" viewBox="0 0 29 23" fill="none" xmlns="http://www.w3.org/2000/svg">
<path d="M4.938 11.687C4.938 12.0764 4.82252 12.4571 4.60616 12.7809C4.38981 13.1047 4.08229 13.3571 3.7225 13.5061C3.36272 13.6552 2.96682 13.6942 2.58487 13.6182C2.20292 13.5422 1.85208 13.3547 1.57671 13.0793C1.30134 12.8039 1.11381 12.4531 1.03783 12.0711C0.96186 11.6892 1.00085 11.2933 1.14988 10.9335C1.29891 10.5737 1.55128 10.2662 1.87508 10.0499C2.19888 9.8335 2.57957 9.71802 2.969 9.71802C3.49121 9.71802 3.99204 9.92546 4.36129 10.2947C4.73055 10.664 4.938 11.1648 4.938 11.687Z" fill="black" stroke="black"/>
<path d="M4.938 2.968C4.9382 3.35747 4.82289 3.73826 4.60665 4.06219C4.39041 4.38612 4.08297 4.63865 3.7232 4.78783C3.36343 4.93701 2.9675 4.97615 2.58548 4.90029C2.20347 4.82443 1.85253 4.63698 1.57706 4.36165C1.30159 4.08632 1.11396 3.73548 1.03791 3.3535C0.961853 2.97152 1.00079 2.57557 1.14979 2.21573C1.29879 1.85588 1.55116 1.54831 1.87498 1.33191C2.1988 1.11551 2.57953 1 2.969 1C3.49104 1 3.99171 1.20731 4.36094 1.57635C4.73017 1.9454 4.93774 2.44596 4.938 2.968Z" fill="black" stroke="black"/>
<path d="M4.938 20.406C4.938 20.7954 4.82252 21.1761 4.60616 21.4999C4.38981 21.8237 4.08229 22.0761 3.7225 22.2251C3.36272 22.3742 2.96682 22.4132 2.58487 22.3372C2.20292 22.2612 1.85208 22.0737 1.57671 21.7983C1.30134 21.5229 1.11381 21.1721 1.03783 20.7901C0.96186 20.4082 1.00085 20.0123 1.14988 19.6525C1.29891 19.2927 1.55128 18.9852 1.87508 18.7688C2.19888 18.5525 2.57957 18.437 2.969 18.437C3.49121 18.437 3.99204 18.6445 4.36129 19.0137C4.73055 19.383 4.938 19.8838 4.938 20.406V20.406Z" fill="black" stroke="black"/>
<path d="M26.8751 10.562H9.96509C9.66672 10.562 9.38057 10.6805 9.16959 10.8915C8.95861 11.1025 8.84009 11.3886 8.84009 11.687C8.84009 11.9854 8.95861 12.2715 9.16959 12.4825C9.38057 12.6935 9.66672 12.812 9.96509 12.812H26.8751C27.1735 12.812 27.4596 12.6935 27.6706 12.4825C27.8816 12.2715 28.0001 11.9854 28.0001 11.687C28.0001 11.3886 27.8816 11.1025 27.6706 10.8915C27.4596 10.6805 27.1735 10.562 26.8751 10.562Z" fill="black" stroke="black"/>
<path d="M26.8751 19.281H9.96509C9.66672 19.281 9.38057 19.3995 9.16959 19.6105C8.95861 19.8215 8.84009 20.1076 8.84009 20.406C8.84009 20.7044 8.95861 20.9905 9.16959 21.2015C9.38057 21.4125 9.66672 21.531 9.96509 21.531H26.8751C27.1735 21.531 27.4596 21.4125 27.6706 21.2015C27.8816 20.9905 28.0001 20.7044 28.0001 20.406C28.0001 20.1076 27.8816 19.8215 27.6706 19.6105C27.4596 19.3995 27.1735 19.281 26.8751 19.281Z" fill="black" stroke="black"/>
<path d="M9.96509 4.09302H26.8751C27.1735 4.09302 27.4596 3.97449 27.6706 3.76351C27.8816 3.55253 28.0001 3.26639 28.0001 2.96802C28.0001 2.66965 27.8816 2.3835 27.6706 2.17252C27.4596 1.96154 27.1735 1.84302 26.8751 1.84302H9.96509C9.66672 1.84302 9.38057 1.96154 9.16959 2.17252C8.95861 2.3835 8.84009 2.66965 8.84009 2.96802C8.84009 3.26639 8.95861 3.55253 9.16959 3.76351C9.38057 3.97449 9.66672 4.09302 9.96509 4.09302V4.09302Z" fill="black" stroke="black"/>
</svg>
