<svg width="149" height="23" viewBox="0 0 149 23" fill="none" xmlns="http://www.w3.org/2000/svg">
<path d="M11.705 22.42C10.045 22.42 8.50498 22.16 7.08498 21.64C5.66498 21.1 4.43498 20.34 3.39498 19.36C2.37498 18.38 1.57498 17.23 0.99498 15.91C0.414981 14.57 0.124981 13.1 0.124981 11.5C0.124981 9.9 0.414981 8.44 0.99498 7.12C1.57498 5.78 2.38498 4.62 3.42498 3.64C4.46498 2.66 5.69498 1.91 7.11498 1.39C8.55498 0.849999 10.125 0.579999 11.825 0.579999C13.805 0.579999 15.575 0.909999 17.135 1.57C18.695 2.23 19.985 3.18 21.005 4.42L17.225 7.84C16.505 7.06 15.725 6.48 14.885 6.1C14.065 5.7 13.145 5.5 12.125 5.5C11.225 5.5 10.405 5.64 9.66498 5.92C8.92498 6.2 8.29498 6.61 7.77498 7.15C7.25498 7.67 6.84498 8.3 6.54498 9.04C6.26498 9.76 6.12498 10.58 6.12498 11.5C6.12498 12.38 6.26498 13.19 6.54498 13.93C6.84498 14.67 7.25498 15.31 7.77498 15.85C8.29498 16.37 8.91498 16.78 9.63498 17.08C10.375 17.36 11.185 17.5 12.065 17.5C12.945 17.5 13.805 17.36 14.645 17.08C15.485 16.78 16.335 16.28 17.195 15.58L20.525 19.75C19.325 20.61 17.935 21.27 16.355 21.73C14.775 22.19 13.225 22.42 11.705 22.42ZM15.275 18.97V11.05H20.525V19.75L15.275 18.97ZM24.2909 22V0.999999H33.8909C35.8109 0.999999 37.4609 1.31 38.8409 1.93C40.2409 2.55 41.3209 3.45 42.0809 4.63C42.8409 5.79 43.2209 7.17 43.2209 8.77C43.2209 10.35 42.8409 11.72 42.0809 12.88C41.3209 14.02 40.2409 14.9 38.8409 15.52C37.4609 16.12 35.8109 16.42 33.8909 16.42H27.5909L30.2309 13.93V22H24.2909ZM37.2809 22L32.0609 14.35H38.3909L43.6409 22H37.2809ZM30.2309 14.56L27.5909 11.83H33.5309C34.7709 11.83 35.6909 11.56 36.2909 11.02C36.9109 10.48 37.2209 9.73 37.2209 8.77C37.2209 7.79 36.9109 7.03 36.2909 6.49C35.6909 5.95 34.7709 5.68 33.5309 5.68H27.5909L30.2309 2.95V14.56ZM51.9579 9.13H61.7079V13.57H51.9579V9.13ZM52.3779 17.41H63.358V22H46.4979V0.999999H62.9679V5.59H52.3779V17.41ZM72.1142 9.13H81.8642V13.57H72.1142V9.13ZM72.5342 17.41H83.5142V22H66.6542V0.999999H83.1242V5.59H72.5342V17.41ZM86.8104 22V0.999999H96.4104C98.3304 0.999999 99.9804 1.31 101.36 1.93C102.76 2.55 103.84 3.45 104.6 4.63C105.36 5.79 105.74 7.17 105.74 8.77C105.74 10.35 105.36 11.72 104.6 12.88C103.84 14.04 102.76 14.94 101.36 15.58C99.9804 16.2 98.3304 16.51 96.4104 16.51H90.1104L92.7504 13.93V22H86.8104ZM92.7504 14.56L90.1104 11.83H96.0504C97.2904 11.83 98.2105 11.56 98.8105 11.02C99.4305 10.48 99.7405 9.73 99.7405 8.77C99.7405 7.79 99.4305 7.03 98.8105 6.49C98.2105 5.95 97.2904 5.68 96.0504 5.68H90.1104L92.7504 2.95V14.56ZM118.122 22.42C115.022 22.42 112.602 21.57 110.862 19.87C109.122 18.17 108.252 15.76 108.252 12.64V0.999999H114.192V12.46C114.192 14.26 114.542 15.55 115.242 16.33C115.962 17.11 116.942 17.5 118.182 17.5C119.422 17.5 120.392 17.11 121.092 16.33C121.792 15.55 122.142 14.26 122.142 12.46V0.999999H127.992V12.64C127.992 15.76 127.122 18.17 125.382 19.87C123.642 21.57 121.222 22.42 118.122 22.42ZM139.396 22.42C137.676 22.42 136.016 22.21 134.416 21.79C132.836 21.35 131.546 20.79 130.546 20.11L132.496 15.73C133.436 16.33 134.516 16.83 135.736 17.23C136.976 17.61 138.206 17.8 139.426 17.8C140.246 17.8 140.906 17.73 141.406 17.59C141.906 17.43 142.266 17.23 142.486 16.99C142.726 16.73 142.846 16.43 142.846 16.09C142.846 15.61 142.626 15.23 142.186 14.95C141.746 14.67 141.176 14.44 140.476 14.26C139.776 14.08 138.996 13.9 138.136 13.72C137.296 13.54 136.446 13.31 135.586 13.03C134.746 12.75 133.976 12.39 133.276 11.95C132.576 11.49 132.006 10.9 131.566 10.18C131.126 9.44 130.906 8.51 130.906 7.39C130.906 6.13 131.246 4.99 131.926 3.97C132.626 2.95 133.666 2.13 135.046 1.51C136.426 0.889999 138.146 0.579999 140.206 0.579999C141.586 0.579999 142.936 0.739999 144.256 1.06C145.596 1.36 146.786 1.81 147.826 2.41L145.996 6.82C144.996 6.28 144.006 5.88 143.026 5.62C142.046 5.34 141.096 5.2 140.176 5.2C139.356 5.2 138.696 5.29 138.196 5.47C137.696 5.63 137.336 5.85 137.116 6.13C136.896 6.41 136.786 6.73 136.786 7.09C136.786 7.55 136.996 7.92 137.416 8.2C137.856 8.46 138.426 8.68 139.126 8.86C139.846 9.02 140.626 9.19 141.466 9.37C142.326 9.55 143.176 9.78 144.016 10.06C144.876 10.32 145.656 10.68 146.356 11.14C147.056 11.58 147.616 12.17 148.036 12.91C148.476 13.63 148.696 14.54 148.696 15.64C148.696 16.86 148.346 17.99 147.646 19.03C146.966 20.05 145.936 20.87 144.556 21.49C143.196 22.11 141.476 22.42 139.396 22.42Z" fill="black"/>
</svg>
