<svg width="1801" height="609" viewBox="0 0 1801 609" fill="none" xmlns="http://www.w3.org/2000/svg">
<path d="M147.166 574.387L158.482 578.441L179.087 535.524L162.386 529.54L147.166 574.387Z" fill="#A0616A"/>
<path d="M161.887 580.839L164.562 572.957L161.524 572.078L149.163 568.478L146.301 567.651L135.197 593.281L134.602 594.655L142.637 597.534L143.373 596.221L146.708 590.251L147.553 597.719L147.736 599.361L169.038 606.994C170.309 607.44 171.699 607.353 172.908 606.752C174.116 606.151 175.045 605.084 175.492 603.784C177.858 599.789 163.307 584.114 161.887 580.839Z" fill="#2F2E41"/>
<path d="M67.1302 583.473H79.1143L84.8159 535.973H67.1273L67.1302 583.473Z" fill="#A0616A"/>
<path d="M83.1019 584.582V576.234L79.9514 576.434L67.1264 577.215L64.1578 577.402L61.8881 605.355L61.7665 606.855H70.2759L70.5494 605.367L71.7855 598.601L74.9769 605.367L75.6757 606.855H98.2365C99.5784 606.845 100.862 606.292 101.81 605.315C102.757 604.339 103.292 603.019 103.298 601.64C104.255 597.073 85.4933 587.195 83.1019 584.582Z" fill="#2F2E41"/>
<path d="M152.659 285.439L171.481 311.071C171.481 311.071 161.087 310.33 171.481 314.971C181.876 319.612 182.171 317.971 182.023 323.599C181.875 329.227 171.279 328.384 176.577 334.145C181.876 339.906 217.365 416.49 217.365 416.49C217.365 416.49 188.284 527.369 184.559 531.89C180.835 536.411 176.676 532.142 180.836 536.414C184.995 540.686 190.191 535.346 184.993 540.686C179.796 546.026 172.667 555.455 172.667 555.455L151.73 552.439C151.73 552.439 128.858 530.011 165.244 492.631C165.244 492.631 174.402 455.231 170.343 455.243C166.283 455.255 166.283 461.281 166.283 449.188V437.094L118.105 344.358C118.105 344.358 87.3591 319.715 87.8418 308.45C88.3246 297.185 152.659 285.439 152.659 285.439Z" fill="#2F2E41"/>
<path d="M118.467 311.07C118.467 311.07 140.296 424.278 137.175 427.482C134.054 430.686 134.06 438.725 134.06 438.725L84.1657 552.438L64.4158 553.506C63.9496 520.972 63.8211 496.295 81.0473 473.406L89.3631 305.731L118.467 311.07Z" fill="#2F2E41"/>
<path d="M146.81 176.688L123.02 157.388L110.532 156.642L92.0016 168.842L87.4641 192.626L76.7336 219.407L92.4737 291.683C92.4737 291.683 93.9501 296.869 90.0813 297.492C86.2125 298.115 86.6748 305.76 86.6748 305.76C86.6748 305.76 87.4622 312.386 83.7063 312.969C79.9504 313.552 69.9333 313.552 78.6987 325.131C87.4642 336.71 156.788 292.918 156.788 292.918L166.856 238.636C166.856 238.636 186.383 211.689 165.354 196.256L146.81 176.688Z" fill="#D5D5D5"/>
<path d="M42.9517 340.789C41.9035 339.445 41.1549 337.881 40.7585 336.208C40.3622 334.534 40.3277 332.792 40.6576 331.103C40.9875 329.415 41.6737 327.821 42.6678 326.435C43.662 325.048 44.94 323.902 46.4118 323.078L76.3365 219.896L95.048 229.575L62.4603 328.475C63.6431 331.107 63.8453 334.093 63.0285 336.868C62.2118 339.643 60.4329 342.014 58.0287 343.532C55.6246 345.05 52.7622 345.609 49.9837 345.104C47.2052 344.598 44.7036 343.063 42.9527 340.79L42.9517 340.789Z" fill="#A0616A"/>
<path d="M96.2967 167.887C96.2967 167.887 90.9436 164.966 87.2889 177.605C84.3602 187.723 60.5935 247.992 60.2899 262.645C58.334 263.071 56.5716 264.153 55.2803 265.721C53.9891 267.289 53.2423 269.255 53.1576 271.307L82.5431 275.353C87.6782 270.903 89.0252 264.893 87.0387 263.109L93.4186 245.209L120.036 188.244L100.199 169.931L96.2967 167.887Z" fill="#D5D5D5"/>
<path d="M253.312 306.873C253.692 305.195 253.709 303.453 253.362 301.768C253.015 300.083 252.313 298.496 251.304 297.12C250.296 295.744 249.007 294.612 247.526 293.804C246.046 292.995 244.412 292.53 242.738 292.441L174.092 211.891L159.53 229.743L230.539 304.437C230.578 307.338 231.652 310.123 233.557 312.264C235.461 314.406 238.064 315.755 240.873 316.055C243.681 316.356 246.499 315.587 248.792 313.895C251.086 312.202 252.695 309.704 253.314 306.874L253.312 306.873Z" fill="#A0616A"/>
<path d="M132.441 174.675C132.441 174.675 136.034 169.665 144.653 179.435C151.552 187.257 198.348 231.035 204.789 244.116C206.732 243.631 208.777 243.824 210.601 244.664C212.425 245.505 213.926 246.945 214.866 248.758L190.073 265.458C183.571 263.727 179.826 258.907 180.867 256.416L167.578 243.107L119.602 203.571L129.778 178.249L132.441 174.675Z" fill="#D5D5D5"/>
<path d="M142.053 129.452C147.455 115.179 140.573 99.1078 126.681 93.5569C112.789 88.0059 97.1472 95.077 91.7445 109.35C86.3419 123.624 93.224 139.695 107.116 145.246C121.008 150.797 136.65 143.726 142.053 129.452Z" fill="#A0616A"/>
<path d="M149.146 93.9839C147.522 92.1843 145.37 90.9786 143.018 90.5501C140.666 90.1216 138.242 90.4937 136.115 91.6099L137.744 82.2609L124.204 80.1319C117.391 79.0609 110.383 77.9969 103.682 79.6579C98.8884 80.9181 94.5203 83.4986 91.0487 87.1213C87.5771 90.7441 85.1337 95.2716 83.9818 100.216C81.0653 98.1833 77.6525 97.0318 74.131 96.8921C70.6095 96.7524 67.1204 97.6301 64.06 99.4255C60.9997 101.221 58.4906 103.862 56.8179 107.049C55.1452 110.236 54.3759 113.841 54.5973 117.455C54.9214 122.773 57.3419 127.68 58.8398 132.781C64.5306 152.166 55.1053 175.048 37.5988 184.346C43.237 188.741 49.0602 193.231 55.8878 195.146C62.7154 197.061 70.8765 195.801 75.374 190.186C77.6749 187.313 78.7806 183.655 79.8434 180.098L92.6908 136.948L99.6118 149.787C101.822 152.962 101.031 157.406 99.4386 160.951C97.8463 164.496 95.5328 167.777 94.8203 171.611C94.1079 175.445 95.7644 180.197 99.4727 181.044C104.484 168.932 109.603 156.026 107.658 143.017C106.902 137.954 105.09 132.762 106.512 127.853C107.612 124.06 110.525 121.075 113.761 118.927C117.148 116.68 120.953 115.182 124.934 114.527C133.73 113.089 144.68 115.02 149.843 107.563C151.182 105.53 151.837 103.104 151.711 100.653C151.585 98.2018 150.683 95.8603 149.143 93.9839H149.146Z" fill="#2F2E41"/>
<path d="M1709.06 593.307H1694.94L1688.23 537.351H1709.07L1709.06 593.307Z" fill="#FFB6B6"/>
<path d="M1709.56 608.441H1666.14V607.877C1666.14 603.272 1667.92 598.856 1671.09 595.6C1674.26 592.344 1678.56 590.514 1683.04 590.514V590.514L1690.97 584.332L1705.76 590.515H1709.55L1709.56 608.441Z" fill="#2F2E41"/>
<path d="M1770.65 593.307H1756.53L1749.82 537.351H1770.66L1770.65 593.307Z" fill="#FFB6B6"/>
<path d="M1771.15 608.441H1727.73V607.877C1727.73 603.272 1729.51 598.856 1732.68 595.6C1735.85 592.344 1740.15 590.514 1744.63 590.514V590.514L1752.56 584.332L1767.35 590.515H1771.14L1771.15 608.441Z" fill="#2F2E41"/>
<path d="M1673.91 288.42C1673.91 288.42 1660.32 331.289 1662.83 336.931C1665.34 342.573 1669.61 338.178 1665.34 342.573C1661.06 346.968 1657.32 342.296 1661.33 349.761C1665.34 357.226 1671.41 418.675 1674.08 421.649C1676.75 424.623 1680.42 424.703 1677.16 427.594C1673.9 430.485 1669.62 424.624 1673.9 430.484C1678.17 436.344 1689.52 571.55 1689.52 571.55H1711.7C1711.7 571.55 1717.22 565.009 1714.1 560.75C1710.97 556.491 1714.37 554.85 1714.1 552.009C1713.82 549.168 1714.86 543.038 1715.05 540.241C1715.25 537.444 1718.99 470.824 1709.99 432.341L1726.41 359.063L1746.3 447.628C1746.3 447.628 1737.15 521.916 1746.3 545.797C1746.3 545.797 1738.93 552.108 1742.2 555.765C1745.47 559.422 1748.32 556.492 1745.47 559.422C1742.62 562.352 1749.75 572.609 1749.75 572.609L1773.99 571.144L1787.72 432.344C1787.72 432.344 1790.03 417.868 1787.72 415.388C1785.4 412.908 1785.4 421.699 1785.4 412.908V401.18C1785.4 401.18 1784.06 329.086 1783.89 324.84C1783.71 320.594 1766.59 289.826 1766.59 289.826L1673.91 288.42Z" fill="#2F2E41"/>
<path d="M1673.97 140.003V224.533C1676.62 232.718 1677.99 241.285 1678.02 249.913C1677.94 264.283 1674.86 280.843 1674.87 288.083C1674.83 289.043 1674.93 290.004 1675.17 290.933C1688.79 331.483 1760.84 294.633 1767.39 291.183C1767.7 291.023 1767.87 290.933 1767.87 290.933L1766.45 245.513L1766.69 232.453L1768.37 142.863L1766.87 141.623L1753.65 130.796L1752.35 129.736L1748.38 135.686L1712.98 133.186L1699.48 129.346L1695.26 131.106L1676.26 139.046L1673.97 140.003Z" fill="#1A1616"/>
<path d="M1653.15 310.432L1657.8 284.017L1672.86 284.643L1666.97 312.391C1667.77 313.85 1668.15 315.507 1668.08 317.178C1668.01 318.848 1667.48 320.464 1666.56 321.845C1665.65 323.226 1664.37 324.317 1662.89 324.995C1661.4 325.673 1659.76 325.911 1658.15 325.682C1656.53 325.454 1655.02 324.768 1653.76 323.702C1652.51 322.635 1651.57 321.231 1651.05 319.646C1650.53 318.062 1650.45 316.36 1650.82 314.732C1651.2 313.104 1652 311.615 1653.15 310.432H1653.15Z" fill="#FFB6B6"/>
<path d="M1676.42 140.177C1684.16 142.236 1688.58 152.542 1691.29 160.265C1694.8 170.188 1689.12 231.365 1682.21 240.285C1676.86 247.206 1678.13 245.875 1679.9 251.607C1681.67 257.339 1685.75 251.748 1682.07 260.274C1678.4 268.8 1675.27 267.262 1677.72 270.897C1680.16 274.532 1683.02 274.113 1679.89 279.564C1676.76 285.015 1677.03 286.972 1676.35 289.064C1675.67 291.156 1674.85 306.258 1674.85 306.258C1674.85 306.258 1658.93 303.598 1650.63 306.811C1650.63 306.811 1656.35 291.995 1654.04 289.338C1651.73 286.681 1648.73 286.122 1651.18 282.767C1653.63 279.412 1658.53 279.694 1653.36 277.456C1648.19 275.218 1652.55 243.627 1652.55 243.627C1646.75 222.834 1650.79 191.727 1656.67 158.713C1657.54 153.831 1659.94 149.376 1663.51 146.029C1667.07 142.682 1671.61 140.626 1676.42 140.177Z" fill="#1A1616"/>
<path d="M1776.84 308.678L1777.97 281.859L1792.97 280.382L1790.79 308.693C1791.77 310.027 1792.37 311.616 1792.52 313.281C1792.67 314.946 1792.36 316.62 1791.63 318.116C1790.91 319.611 1789.79 320.869 1788.41 321.748C1787.02 322.626 1785.43 323.091 1783.8 323.089C1782.17 323.087 1780.58 322.619 1779.2 321.738C1777.81 320.856 1776.7 319.596 1775.97 318.099C1775.25 316.601 1774.95 314.927 1775.1 313.262C1775.25 311.598 1775.85 310.01 1776.84 308.678H1776.84Z" fill="#FFB6B6"/>
<path d="M1761.16 140.607L1761.58 140.658C1765.49 141.132 1769.23 142.578 1772.47 144.871C1775.72 147.164 1778.37 150.234 1780.2 153.817C1784.97 163.161 1800.08 226.445 1796.38 235.129C1792.93 243.229 1793.07 241.237 1795.58 246.669C1798.09 252.101 1801.4 245.994 1798.88 254.953C1796.37 263.912 1793.06 262.824 1795.97 266.085C1798.87 269.346 1801.65 268.533 1799.27 274.369C1796.88 280.205 1797.41 282.107 1797.01 284.279C1796.62 286.451 1797.79 301.523 1797.79 301.523C1797.79 301.523 1781.67 301.105 1773.87 305.444C1773.87 305.444 1777.58 289.968 1774.94 287.658C1772.3 285.348 1769.26 285.21 1771.24 281.546C1773.23 277.882 1778.12 277.477 1772.7 275.98C1767.29 274.483 1767.44 242.58 1767.44 242.58L1761.16 140.607Z" fill="#1A1616"/>
<path d="M1722.51 106.427C1723.14 106.577 1723.77 106.707 1724.41 106.807C1726.34 107.133 1728.3 107.237 1730.26 107.117C1735.35 106.836 1740.27 105.111 1744.46 102.134C1748.66 99.1571 1751.97 95.0439 1754.03 90.2507C1756.09 85.4575 1756.82 80.1717 1756.13 74.9795C1755.45 69.7873 1753.38 64.8916 1750.15 60.8353C1746.92 56.779 1742.66 53.7208 1737.85 51.9996C1733.03 50.2785 1727.84 49.9618 1722.86 51.0846C1717.88 52.2074 1713.3 54.7259 1709.62 58.3607C1705.95 61.9955 1703.33 66.6046 1702.05 71.6769C1701.99 71.9069 1701.93 72.1269 1701.89 72.3569C1700.23 79.6847 1701.46 87.3901 1705.33 93.7791C1709.2 100.168 1715.38 104.717 1722.51 106.427V106.427Z" fill="#FFB6B6"/>
<path d="M1747.99 103.079C1751.83 99.9908 1752.21 94.1048 1755.49 90.3948C1760.97 84.1948 1763.54 77.5179 1760.67 70.1679C1758.13 63.6679 1758.67 55.6759 1753.2 51.4909C1755.89 50.4909 1756.52 48.4178 1754.15 48.3798C1752.55 48.3538 1746.6 51.4918 1749.46 47.5798C1752.33 43.6678 1746.9 45.2139 1747.26 43.6139C1747.62 42.0139 1749.92 41.1279 1750.94 42.3959C1747.7 38.4959 1740.62 39.3269 1738.32 43.8789C1735.09 38.9059 1731.67 35.4849 1726.72 38.6399C1721.87 41.7399 1721.93 45.5709 1716.71 44.6499C1714.26 44.2169 1714.03 48.9798 1712.35 50.8708C1710.68 52.7618 1708.23 54.2258 1705.78 53.7508C1703.33 53.2758 1701.46 50.1438 1702.83 48.0088L1697.06 61.5259L1694.74 58.5978C1691.05 61.0698 1692.26 67.5208 1695.98 69.9548C1699.69 72.3888 1706.79 66.7638 1708.8 70.7898C1711.98 77.1358 1719.44 73.9318 1724.56 69.4468C1730.78 64.0078 1738.27 80.5469 1735.28 88.3469C1738.39 85.2149 1744.13 87.8138 1745.74 91.9678C1747.35 96.1218 1746.17 100.802 1744.97 105.101L1747.99 103.079Z" fill="#2F2E41"/>
<path d="M1695.4 131.457L1696.37 132.717L1698.96 136.097L1708.54 165.177L1753.79 131.147L1752.5 130.087L1745.61 115.037L1710.21 112.537L1699.62 129.697L1695.4 131.457Z" fill="#3F3D56"/>
<path d="M221.907 117.462C229.338 117.462 235.362 111.273 235.362 103.638C235.362 96.0031 229.338 89.8138 221.907 89.8138C214.477 89.8138 208.453 96.0031 208.453 103.638C208.453 111.273 214.477 117.462 221.907 117.462Z" fill="#F2F2F2"/>
<path d="M223.612 97.8759C223.598 98.1849 223.621 98.4945 223.68 98.7979C223.708 99.1285 223.826 99.4444 224.018 99.7109C224.211 99.9774 224.471 100.184 224.771 100.308C224.823 100.321 224.877 100.329 224.93 100.332C225.522 100.359 226.056 99.7739 226.307 98.9179C226.392 98.6212 226.441 98.3149 226.454 98.0059C226.468 97.7002 226.445 97.3939 226.386 97.0939C226.212 96.2149 225.729 95.5779 225.136 95.5509C224.351 95.5139 223.669 96.5549 223.612 97.8759Z" fill="white"/>
<path d="M224.371 99.0019C224.35 99.4722 224.491 99.9349 224.771 100.308C224.823 100.321 224.877 100.329 224.931 100.332C225.522 100.359 226.056 99.7739 226.307 98.9179C226.392 98.6212 226.441 98.315 226.454 98.0059C226.468 97.7003 226.446 97.3939 226.387 97.0939C225.873 97.0741 225.373 97.2637 224.995 97.6213C224.617 97.9789 224.392 98.4756 224.369 99.0029L224.371 99.0019Z" fill="#F2F2F2"/>
<path d="M217.723 97.6079C217.669 98.8749 218.21 99.9379 218.949 100.054C218.981 100.059 219.013 100.063 219.046 100.064C219.83 100.1 220.513 99.0579 220.569 97.7379C220.583 97.4326 220.561 97.1266 220.502 96.8269C220.328 95.9459 219.845 95.3089 219.251 95.2819C218.462 95.2459 217.781 96.2879 217.723 97.6079Z" fill="white"/>
<path d="M218.542 98.7359C218.521 99.211 218.666 99.6782 218.951 100.053C218.983 100.058 219.015 100.062 219.048 100.063C219.832 100.099 220.515 99.0569 220.571 97.7369C220.585 97.4315 220.563 97.1255 220.504 96.8259C220 96.8212 219.514 97.0177 219.148 97.3739C218.782 97.7302 218.565 98.2184 218.542 98.7359Z" fill="#F2F2F2"/>
<path d="M227.485 104.782C227.334 108.291 225.194 111.044 222.706 110.93C220.219 110.816 218.326 107.88 218.474 104.372C219.834 105.177 221.363 105.635 222.931 105.707C224.499 105.778 226.061 105.461 227.485 104.782V104.782Z" fill="white"/>
<path d="M321.183 190.237C328.614 190.237 334.638 184.048 334.638 176.413C334.638 168.778 328.614 162.589 321.183 162.589C313.752 162.589 307.728 168.778 307.728 176.413C307.728 184.048 313.752 190.237 321.183 190.237Z" fill="#F2F2F2"/>
<path d="M322.887 170.65C322.873 170.959 322.896 171.269 322.955 171.572C322.984 171.903 323.101 172.219 323.293 172.485C323.486 172.751 323.746 172.958 324.046 173.082C324.099 173.095 324.153 173.103 324.207 173.106C324.799 173.133 325.332 172.548 325.583 171.692C325.668 171.395 325.717 171.089 325.73 170.78C325.744 170.474 325.722 170.168 325.663 169.868C325.489 168.989 325.006 168.352 324.412 168.325C323.627 168.288 322.944 169.329 322.887 170.65Z" fill="white"/>
<path d="M323.646 171.776C323.625 172.246 323.767 172.709 324.046 173.082C324.099 173.095 324.152 173.103 324.206 173.106C324.798 173.133 325.331 172.548 325.582 171.692C325.667 171.395 325.716 171.089 325.729 170.78C325.743 170.474 325.721 170.168 325.662 169.868C325.149 169.848 324.648 170.038 324.27 170.395C323.892 170.753 323.667 171.249 323.644 171.777L323.646 171.776Z" fill="#F2F2F2"/>
<path d="M316.998 170.382C316.944 171.649 317.485 172.712 318.224 172.828C318.256 172.833 318.289 172.836 318.321 172.838C319.106 172.874 319.788 171.832 319.844 170.512C319.859 170.206 319.836 169.9 319.777 169.601C319.603 168.72 319.12 168.083 318.526 168.056C317.737 168.02 317.056 169.062 316.998 170.382Z" fill="white"/>
<path d="M317.817 171.51C317.796 171.985 317.941 172.452 318.226 172.827C318.258 172.832 318.29 172.836 318.323 172.837C319.108 172.873 319.79 171.831 319.846 170.511C319.861 170.206 319.838 169.9 319.779 169.6C319.275 169.595 318.789 169.792 318.423 170.148C318.057 170.504 317.84 170.992 317.817 171.51Z" fill="#F2F2F2"/>
<path d="M326.761 177.556C326.61 181.065 324.469 183.818 321.982 183.704C319.494 183.59 317.602 180.655 317.75 177.146C319.11 177.951 320.638 178.409 322.206 178.481C323.775 178.552 325.337 178.235 326.761 177.556Z" fill="white"/>
<path d="M580.077 28.2369C587.508 28.2369 593.532 22.0477 593.532 14.4129C593.532 6.77808 587.508 0.588867 580.077 0.588867C572.646 0.588867 566.623 6.77808 566.623 14.4129C566.623 22.0477 572.646 28.2369 580.077 28.2369Z" fill="#F2F2F2"/>
<path d="M581.782 8.64993C581.768 8.95897 581.791 9.26859 581.85 9.57193C581.879 9.9025 581.996 10.2185 582.188 10.485C582.381 10.7514 582.642 10.958 582.941 11.0819C582.993 11.0953 583.047 11.1034 583.101 11.1059C583.693 11.1329 584.226 10.5479 584.477 9.69192C584.562 9.3952 584.611 9.08895 584.624 8.77993C584.638 8.47425 584.616 8.16792 584.557 7.86793C584.383 6.98893 583.9 6.35193 583.306 6.32493C582.522 6.28793 581.839 7.32893 581.782 8.64993Z" fill="white"/>
<path d="M582.541 9.7759C582.52 10.2462 582.662 10.7089 582.941 11.0819C582.993 11.0953 583.047 11.1034 583.101 11.1059C583.693 11.1329 584.226 10.5479 584.477 9.6919C584.562 9.39518 584.611 9.08893 584.624 8.77992C584.638 8.47423 584.616 8.16791 584.557 7.86791C584.044 7.84865 583.544 8.03832 583.167 8.39565C582.789 8.75299 582.564 9.24906 582.541 9.7759V9.7759Z" fill="#F2F2F2"/>
<path d="M575.893 8.38184C575.839 9.64884 576.38 10.7118 577.119 10.8278C577.151 10.8332 577.183 10.8365 577.216 10.8379C578 10.8739 578.683 9.83185 578.739 8.51185C578.753 8.2065 578.731 7.90051 578.672 7.60085C578.498 6.71985 578.015 6.08284 577.421 6.05584C576.632 6.01984 575.951 7.06184 575.893 8.38184Z" fill="white"/>
<path d="M576.712 9.50991C576.69 9.985 576.835 10.4522 577.121 10.8269C577.153 10.8322 577.185 10.8356 577.218 10.8369C578.002 10.8729 578.685 9.83091 578.741 8.51091C578.755 8.20555 578.733 7.89956 578.674 7.59991C578.17 7.59602 577.685 7.79284 577.319 8.14901C576.954 8.50518 576.737 8.99298 576.715 9.50991H576.712Z" fill="#F2F2F2"/>
<path d="M585.655 15.5559C585.504 19.0649 583.364 21.8179 580.876 21.7039C578.389 21.5899 576.497 18.6539 576.645 15.1459C578.004 15.9515 579.533 16.4093 581.101 16.4806C582.669 16.552 584.231 16.2348 585.655 15.5559V15.5559Z" fill="white"/>
<path d="M13.6227 395.237C21.0536 395.237 27.0774 389.048 27.0774 381.413C27.0774 373.778 21.0536 367.589 13.6227 367.589C6.19186 367.589 0.167969 373.778 0.167969 381.413C0.167969 389.048 6.19186 395.237 13.6227 395.237Z" fill="#F2F2F2"/>
<path d="M15.3279 375.65C15.314 375.959 15.3369 376.269 15.3961 376.572C15.4248 376.903 15.5419 377.218 15.7344 377.485C15.9269 377.751 16.1874 377.958 16.4871 378.082C16.5394 378.095 16.5929 378.103 16.6467 378.106C17.2385 378.133 17.7719 377.548 18.023 376.692C18.1079 376.395 18.1573 376.089 18.1699 375.78C18.1842 375.474 18.1616 375.168 18.1028 374.868C17.9286 373.989 17.4458 373.352 16.8521 373.325C16.0676 373.288 15.3853 374.329 15.3279 375.65Z" fill="white"/>
<path d="M16.0871 376.776C16.0658 377.246 16.2075 377.709 16.4871 378.082C16.5394 378.095 16.5929 378.103 16.6467 378.106C17.2385 378.133 17.7718 377.548 18.0229 376.692C18.1079 376.395 18.1572 376.089 18.1699 375.78C18.1842 375.474 18.1616 375.168 18.1027 374.868C17.5895 374.848 17.0895 375.038 16.7117 375.396C16.334 375.753 16.1091 376.25 16.0861 376.777L16.0871 376.776Z" fill="#F2F2F2"/>
<path d="M9.43945 375.382C9.38494 376.649 9.9261 377.712 10.6648 377.828C10.697 377.833 10.7295 377.837 10.7621 377.838C11.5466 377.874 12.2289 376.832 12.2853 375.512C12.2997 375.206 12.2771 374.901 12.2182 374.601C12.0439 373.72 11.5612 373.083 10.9675 373.056C10.1782 373.02 9.49687 374.062 9.43945 375.382Z" fill="white"/>
<path d="M10.258 376.51C10.2367 376.985 10.3817 377.452 10.6668 377.827C10.699 377.832 10.7315 377.836 10.7641 377.837C11.5486 377.873 12.2309 376.831 12.2873 375.511C12.3017 375.206 12.2791 374.9 12.2202 374.6C11.7161 374.595 11.2298 374.792 10.8639 375.148C10.4979 375.504 10.2807 375.993 10.258 376.51Z" fill="#F2F2F2"/>
<path d="M19.2016 382.556C19.0507 386.065 16.9104 388.818 14.4227 388.704C11.935 388.59 10.0429 385.655 10.1909 382.146C11.5508 382.951 13.0793 383.409 14.6475 383.481C16.2157 383.552 17.7777 383.235 19.2016 382.556V382.556Z" fill="white"/>
<path d="M16.5426 176.237C23.9735 176.237 29.9974 170.048 29.9974 162.413C29.9974 154.778 23.9735 148.589 16.5426 148.589C9.11178 148.589 3.08789 154.778 3.08789 162.413C3.08789 170.048 9.11178 176.237 16.5426 176.237Z" fill="#F2F2F2"/>
<path d="M18.2477 156.65C18.2338 156.959 18.2567 157.269 18.3159 157.572C18.3446 157.903 18.4616 158.219 18.6542 158.485C18.8467 158.751 19.1072 158.958 19.4069 159.082C19.4592 159.095 19.5127 159.103 19.5665 159.106C20.1583 159.133 20.6917 158.548 20.9428 157.692C21.0277 157.395 21.0771 157.089 21.0897 156.78C21.104 156.474 21.0814 156.168 21.0226 155.868C20.8484 154.989 20.3656 154.352 19.7719 154.325C18.9874 154.288 18.3051 155.329 18.2477 156.65Z" fill="white"/>
<path d="M19.007 157.776C18.9857 158.246 19.1274 158.709 19.407 159.082C19.4593 159.095 19.5128 159.103 19.5666 159.106C20.1584 159.133 20.6917 158.548 20.9429 157.692C21.0278 157.395 21.0771 157.089 21.0898 156.78C21.1041 156.474 21.0815 156.168 21.0227 155.868C20.5094 155.848 20.0094 156.038 19.6316 156.396C19.2539 156.753 19.029 157.25 19.006 157.777L19.007 157.776Z" fill="#F2F2F2"/>
<path d="M12.3594 156.382C12.3049 157.649 12.846 158.712 13.5847 158.828C13.617 158.833 13.6494 158.836 13.682 158.838C14.4665 158.874 15.1488 157.832 15.2052 156.512C15.2196 156.206 15.197 155.9 15.1381 155.601C14.9639 154.72 14.4811 154.083 13.8874 154.056C13.0981 154.02 12.4168 155.062 12.3594 156.382Z" fill="white"/>
<path d="M13.1778 157.51C13.1565 157.985 13.3015 158.452 13.5866 158.827C13.6188 158.832 13.6513 158.836 13.6839 158.837C14.4684 158.873 15.1507 157.831 15.2071 156.511C15.2215 156.206 15.1989 155.9 15.14 155.6C14.6364 155.596 14.1509 155.793 13.7855 156.149C13.4202 156.505 13.2034 156.993 13.1808 157.51H13.1778Z" fill="#F2F2F2"/>
<path d="M22.1215 163.556C21.9706 167.065 19.8304 169.818 17.3426 169.704C14.8549 169.59 12.9628 166.655 13.1108 163.146C14.4707 163.951 15.9992 164.409 17.5674 164.481C19.1356 164.552 20.6976 164.235 22.1215 163.556V163.556Z" fill="white"/>
<path d="M1407.9 608.443H1551.33C1572.84 608.443 1590.34 590.434 1590.34 568.297V178.145C1590.34 156.009 1572.84 138 1551.33 138H1407.9C1386.39 138 1368.89 156.009 1368.89 178.145C1366.22 334.818 1361.67 510.267 1368.89 568.297C1368.89 590.434 1386.39 608.443 1407.9 608.443Z" fill="#3F3D56"/>
<path d="M1366.89 282.077C1367.33 282.078 1367.75 282.252 1368.06 282.561C1368.36 282.87 1368.54 283.29 1368.54 283.727V336.541C1368.54 336.979 1368.37 337.398 1368.06 337.708C1367.75 338.017 1367.33 338.191 1366.89 338.191C1366.45 338.191 1366.03 338.017 1365.72 337.708C1365.41 337.398 1365.24 336.979 1365.24 336.541V283.727C1365.24 283.29 1365.41 282.87 1365.72 282.561C1366.03 282.252 1366.45 282.078 1366.89 282.077V282.077Z" fill="#3F3D56"/>
<path d="M1372.6 178.055V568.382C1372.6 587.659 1387.18 603.427 1405.6 604.65H1405.61C1405.88 604.667 1406.16 604.684 1406.44 604.693C1406.92 604.718 1407.41 604.727 1407.9 604.727C1407.9 604.727 1409.72 604.591 1413.04 604.336C1416.39 604.081 1421.26 603.699 1427.35 603.198C1429.17 603.053 1431.1 602.895 1433.12 602.722C1437.17 602.382 1441.61 602.008 1446.37 601.584C1448.27 601.423 1450.23 601.244 1452.24 601.066C1462.48 600.157 1473.96 599.095 1486.07 597.889C1488.12 597.694 1490.18 597.49 1492.26 597.277C1492.8 597.218 1586.62 572.937 1586.62 568.383V178.055C1586.62 157.98 1570.82 141.71 1551.32 141.71H1530.25C1528.61 141.747 1527.04 142.401 1525.86 143.543C1524.68 144.685 1523.97 146.231 1523.88 147.87C1523.86 148.099 1523.83 148.329 1523.79 148.558C1523.48 150.222 1522.6 151.724 1521.29 152.803C1519.99 153.881 1518.35 154.467 1516.66 154.458H1442.57C1440.88 154.467 1439.24 153.881 1437.93 152.803C1436.63 151.724 1435.75 150.222 1435.44 148.558C1435.39 148.329 1435.37 148.099 1435.34 147.87C1435.25 146.231 1434.55 144.686 1433.37 143.544C1432.19 142.402 1430.62 141.748 1428.98 141.711H1407.91C1388.41 141.711 1372.61 157.98 1372.61 178.056L1372.6 178.055Z" fill="white"/>
<path d="M1591.17 240.859C1591.6 240.86 1592.02 241.034 1592.33 241.343C1592.64 241.652 1592.81 242.072 1592.82 242.509V255.709C1592.82 256.147 1592.64 256.566 1592.33 256.876C1592.02 257.185 1591.6 257.359 1591.17 257.359C1590.73 257.359 1590.31 257.185 1590 256.876C1589.69 256.566 1589.52 256.147 1589.52 255.709V242.506C1589.52 242.069 1589.69 241.65 1590 241.342C1590.31 241.033 1590.73 240.86 1591.17 240.859Z" fill="#3F3D56"/>
<path d="M1591.17 281.784C1591.6 281.785 1592.02 281.959 1592.33 282.268C1592.64 282.577 1592.81 282.997 1592.82 283.434V309.02C1592.82 309.458 1592.64 309.877 1592.33 310.187C1592.02 310.496 1591.6 310.67 1591.17 310.67C1590.73 310.67 1590.31 310.496 1590 310.187C1589.69 309.877 1589.52 309.458 1589.52 309.02V283.434C1589.52 282.997 1589.69 282.577 1590 282.268C1590.31 281.959 1590.73 281.785 1591.17 281.784V281.784Z" fill="#3F3D56"/>
<path d="M1591.17 319.218C1591.6 319.219 1592.02 319.393 1592.33 319.702C1592.64 320.011 1592.81 320.431 1592.82 320.868V346.45C1592.82 346.888 1592.64 347.307 1592.33 347.617C1592.02 347.926 1591.6 348.1 1591.17 348.1C1590.73 348.1 1590.31 347.926 1590 347.617C1589.69 347.307 1589.52 346.888 1589.52 346.45V320.868C1589.52 320.431 1589.69 320.011 1590 319.702C1590.31 319.393 1590.73 319.219 1591.17 319.218V319.218Z" fill="#3F3D56"/>
<path d="M1562.39 147.49H1530.82C1530.65 147.49 1530.51 147.629 1530.51 147.8V151.306C1530.51 151.477 1530.65 151.616 1530.82 151.616H1562.39C1562.56 151.616 1562.7 151.477 1562.7 151.306V147.8C1562.7 147.629 1562.56 147.49 1562.39 147.49Z" fill="#E6E6E6"/>
<path d="M1423.77 151.617C1425.59 151.617 1427.07 150.139 1427.07 148.316C1427.07 146.493 1425.59 145.015 1423.77 145.015C1421.94 145.015 1420.47 146.493 1420.47 148.316C1420.47 150.139 1421.94 151.617 1423.77 151.617Z" fill="#E6E6E6"/>
<path d="M1414.69 151.617C1416.51 151.617 1417.99 150.139 1417.99 148.316C1417.99 146.493 1416.51 145.015 1414.69 145.015C1412.87 145.015 1411.39 146.493 1411.39 148.316C1411.39 150.139 1412.87 151.617 1414.69 151.617Z" fill="#E6E6E6"/>
<path d="M1405.61 151.617C1407.43 151.617 1408.91 150.139 1408.91 148.316C1408.91 146.493 1407.43 145.015 1405.61 145.015C1403.79 145.015 1402.31 146.493 1402.31 148.316C1402.31 150.139 1403.79 151.617 1405.61 151.617Z" fill="#E6E6E6"/>
<path d="M1390.06 451.401C1390.06 413.776 1421.86 393.078 1458.19 383.274C1504.76 370.705 1538.87 396.139 1526.32 451.401C1517.98 488.091 1475.67 542.847 1458.19 509.528C1438.19 471.401 1390.06 489.026 1390.06 451.401Z" fill="#F2F2F2"/>
<path d="M1480.83 443.951L1489.06 440.051C1485.69 444.762 1482.78 452.119 1481.22 457.974C1478.59 452.521 1474.34 445.848 1470.13 441.862L1478.83 444.1C1473.47 417.832 1453.31 398.974 1430.23 398.974L1429.9 398.025C1454.01 398.025 1475.37 416.625 1480.84 443.95L1480.83 443.951Z" fill="#3F3D56"/>
<path d="M1442.95 483.975H1494.95C1496.02 483.975 1497.03 483.554 1497.78 482.803C1498.53 482.053 1498.95 481.036 1498.95 479.975C1498.95 478.914 1498.53 477.897 1497.78 477.147C1497.03 476.396 1496.02 475.975 1494.95 475.975H1442.95C1441.89 475.975 1440.88 476.396 1440.13 477.147C1439.38 477.897 1438.95 478.914 1438.95 479.975C1438.95 481.036 1439.38 482.053 1440.13 482.803C1440.88 483.554 1441.89 483.975 1442.95 483.975Z" fill="#1A1616"/>
<path d="M1545.26 227.963V333.963C1545.26 343.337 1538 350.963 1529.08 350.963H1428.17C1419.24 350.963 1411.98 343.337 1411.98 333.963V227.963C1411.98 218.589 1419.24 210.963 1428.17 210.963H1529.08C1538 210.963 1545.26 218.589 1545.26 227.963ZM1529.08 348.963C1536.96 348.963 1543.36 342.247 1543.36 333.963V280.522C1543.36 243.21 1514.56 212.963 1479.04 212.963H1428.17C1420.28 212.963 1413.89 219.679 1413.89 227.963V333.963C1413.89 342.247 1420.28 348.963 1428.17 348.963H1529.08Z" fill="#3F3D56"/>
<path d="M1447.28 255.21C1446.45 255.21 1445.68 255.08 1444.97 254.82C1444.26 254.55 1443.65 254.17 1443.13 253.68C1442.62 253.19 1442.22 252.615 1441.93 251.955C1441.64 251.285 1441.49 250.55 1441.49 249.75C1441.49 248.95 1441.64 248.22 1441.93 247.56C1442.22 246.89 1442.62 246.31 1443.14 245.82C1443.66 245.33 1444.28 244.955 1444.99 244.695C1445.71 244.425 1446.49 244.29 1447.34 244.29C1448.33 244.29 1449.22 244.455 1450 244.785C1450.78 245.115 1451.42 245.59 1451.93 246.21L1450.04 247.92C1449.68 247.53 1449.29 247.24 1448.87 247.05C1448.46 246.85 1448 246.75 1447.49 246.75C1447.04 246.75 1446.63 246.82 1446.26 246.96C1445.89 247.1 1445.58 247.305 1445.32 247.575C1445.06 247.835 1444.85 248.15 1444.7 248.52C1444.56 248.88 1444.49 249.29 1444.49 249.75C1444.49 250.19 1444.56 250.595 1444.7 250.965C1444.85 251.335 1445.06 251.655 1445.32 251.925C1445.58 252.185 1445.89 252.39 1446.25 252.54C1446.62 252.68 1447.02 252.75 1447.46 252.75C1447.9 252.75 1448.33 252.68 1448.75 252.54C1449.17 252.39 1449.6 252.14 1450.03 251.79L1451.69 253.875C1451.09 254.305 1450.4 254.635 1449.61 254.865C1448.82 255.095 1448.04 255.21 1447.28 255.21ZM1449.07 253.485V249.525H1451.69V253.875L1449.07 253.485ZM1453.58 255V244.5H1458.38C1459.34 244.5 1460.16 244.655 1460.85 244.965C1461.55 245.275 1462.09 245.725 1462.47 246.315C1462.85 246.895 1463.04 247.585 1463.04 248.385C1463.04 249.175 1462.85 249.86 1462.47 250.44C1462.09 251.01 1461.55 251.45 1460.85 251.76C1460.16 252.06 1459.34 252.21 1458.38 252.21H1455.23L1456.55 250.965V255H1453.58ZM1460.07 255L1457.46 251.175H1460.63L1463.25 255H1460.07ZM1456.55 251.28L1455.23 249.915H1458.2C1458.82 249.915 1459.28 249.78 1459.58 249.51C1459.89 249.24 1460.04 248.865 1460.04 248.385C1460.04 247.895 1459.89 247.515 1459.58 247.245C1459.28 246.975 1458.82 246.84 1458.2 246.84H1455.23L1456.55 245.475V251.28ZM1467.41 248.565H1472.29V250.785H1467.41V248.565ZM1467.62 252.705H1473.11V255H1464.68V244.5H1472.92V246.795H1467.62V252.705ZM1477.49 248.565H1482.36V250.785H1477.49V248.565ZM1477.7 252.705H1483.19V255H1474.76V244.5H1482.99V246.795H1477.7V252.705ZM1484.84 255V244.5H1489.64C1490.6 244.5 1491.42 244.655 1492.11 244.965C1492.81 245.275 1493.35 245.725 1493.73 246.315C1494.11 246.895 1494.3 247.585 1494.3 248.385C1494.3 249.175 1494.11 249.86 1493.73 250.44C1493.35 251.02 1492.81 251.47 1492.11 251.79C1491.42 252.1 1490.6 252.255 1489.64 252.255H1486.49L1487.81 250.965V255H1484.84ZM1487.81 251.28L1486.49 249.915H1489.46C1490.08 249.915 1490.54 249.78 1490.84 249.51C1491.15 249.24 1491.3 248.865 1491.3 248.385C1491.3 247.895 1491.15 247.515 1490.84 247.245C1490.54 246.975 1490.08 246.84 1489.46 246.84H1486.49L1487.81 245.475V251.28ZM1500.49 255.21C1498.94 255.21 1497.73 254.785 1496.86 253.935C1495.99 253.085 1495.56 251.88 1495.56 250.32V244.5H1498.53V250.23C1498.53 251.13 1498.7 251.775 1499.05 252.165C1499.41 252.555 1499.9 252.75 1500.52 252.75C1501.14 252.75 1501.63 252.555 1501.98 252.165C1502.33 251.775 1502.5 251.13 1502.5 250.23V244.5H1505.43V250.32C1505.43 251.88 1504.99 253.085 1504.12 253.935C1503.25 254.785 1502.04 255.21 1500.49 255.21ZM1511.13 255.21C1510.27 255.21 1509.44 255.105 1508.64 254.895C1507.85 254.675 1507.2 254.395 1506.7 254.055L1507.68 251.865C1508.15 252.165 1508.69 252.415 1509.3 252.615C1509.92 252.805 1510.53 252.9 1511.14 252.9C1511.55 252.9 1511.88 252.865 1512.13 252.795C1512.38 252.715 1512.56 252.615 1512.67 252.495C1512.79 252.365 1512.85 252.215 1512.85 252.045C1512.85 251.805 1512.74 251.615 1512.52 251.475C1512.3 251.335 1512.02 251.22 1511.67 251.13C1511.32 251.04 1510.93 250.95 1510.5 250.86C1510.08 250.77 1509.65 250.655 1509.22 250.515C1508.8 250.375 1508.42 250.195 1508.07 249.975C1507.72 249.745 1507.43 249.45 1507.21 249.09C1506.99 248.72 1506.88 248.255 1506.88 247.695C1506.88 247.065 1507.05 246.495 1507.39 245.985C1507.74 245.475 1508.26 245.065 1508.95 244.755C1509.64 244.445 1510.5 244.29 1511.53 244.29C1512.22 244.29 1512.9 244.37 1513.56 244.53C1514.23 244.68 1514.82 244.905 1515.34 245.205L1514.43 247.41C1513.93 247.14 1513.43 246.94 1512.94 246.81C1512.45 246.67 1511.98 246.6 1511.52 246.6C1511.11 246.6 1510.78 246.645 1510.53 246.735C1510.28 246.815 1510.1 246.925 1509.99 247.065C1509.88 247.205 1509.82 247.365 1509.82 247.545C1509.82 247.775 1509.93 247.96 1510.14 248.1C1510.36 248.23 1510.64 248.34 1510.99 248.43C1511.35 248.51 1511.74 248.595 1512.16 248.685C1512.59 248.775 1513.02 248.89 1513.44 249.03C1513.87 249.16 1514.26 249.34 1514.61 249.57C1514.96 249.79 1515.24 250.085 1515.45 250.455C1515.67 250.815 1515.78 251.27 1515.78 251.82C1515.78 252.43 1515.6 252.995 1515.25 253.515C1514.91 254.025 1514.4 254.435 1513.71 254.745C1513.03 255.055 1512.17 255.21 1511.13 255.21Z" fill="black"/>
</svg>
