<svg width="27" height="27" viewBox="0 0 27 27" fill="none" xmlns="http://www.w3.org/2000/svg">
<path d="M25.7022 24.177L18.7295 17.1336C20.3077 15.1365 21.0616 12.6094 20.8362 10.0723C20.6108 7.53521 19.4231 5.1812 17.5176 3.49471C15.6121 1.80821 13.1337 0.917551 10.5925 1.00601C8.05136 1.09447 5.64069 2.15532 3.85665 3.97025C2.07261 5.78517 1.05093 8.21609 1.00185 10.7627C0.952779 13.3094 1.88005 15.778 3.59284 17.6605C5.30563 19.5431 7.67362 20.6963 10.2095 20.883C12.7454 21.0696 15.2562 20.2754 17.2253 18.6638L24.1512 25.6671C24.3472 25.8728 24.6166 25.9924 24.9004 25.9997C25.1842 26.0069 25.4593 25.9011 25.6654 25.7056C25.8726 25.5077 25.9928 25.2355 25.9997 24.9489C26.0066 24.6623 25.8996 24.3846 25.7022 24.177ZM10.9211 18.7442C9.1061 18.7439 7.34738 18.1133 5.94453 16.9597C4.54169 15.8062 3.58152 14.2011 3.22761 12.4179C2.87371 10.6347 3.14796 8.78372 4.00364 7.18036C4.85932 5.57701 6.24349 4.32045 7.92033 3.62477C9.59716 2.9291 11.4629 2.83735 13.1997 3.36516C14.9365 3.89297 16.4369 5.00768 17.4452 6.51937C18.4536 8.03106 18.9075 9.84621 18.7296 11.6556C18.5518 13.4649 17.7531 15.1565 16.4698 16.4422C15.7427 17.1742 14.878 17.7546 13.9255 18.1497C12.9731 18.5449 11.9519 18.7469 10.9211 18.7442V18.7442Z" fill="black" stroke="black"/>
</svg>
