<svg width="36" height="36" viewBox="0 0 36 36" fill="none" xmlns="http://www.w3.org/2000/svg">
<path d="M22.5 18C22.5 18.89 22.2361 19.76 21.7416 20.5001C21.2471 21.2401 20.5443 21.8169 19.7221 22.1575C18.8998 22.4981 17.995 22.5872 17.1221 22.4135C16.2492 22.2399 15.4474 21.8113 14.818 21.182C14.1887 20.5526 13.7601 19.7508 13.5865 18.8779C13.4128 18.005 13.5019 17.1002 13.8425 16.2779C14.1831 15.4557 14.7599 14.7529 15.4999 14.2584C16.24 13.7639 17.11 13.5 18 13.5C19.1935 13.5 20.3381 13.9741 21.182 14.818C22.0259 15.6619 22.5 16.8065 22.5 18Z" stroke="white" stroke-width="3" stroke-linecap="round" stroke-linejoin="round"/>
<path d="M29.1 22.5C28.9003 22.9524 28.8408 23.4543 28.929 23.9409C29.0172 24.4275 29.2492 24.8765 29.595 25.23L29.685 25.32C29.9637 25.5987 30.1848 25.9296 30.3357 26.2938C30.4865 26.658 30.5642 27.0483 30.5642 27.4425C30.5642 27.8367 30.4865 28.227 30.3357 28.5912C30.1848 28.9554 29.9637 29.2863 29.685 29.565C29.4063 29.8437 29.0754 30.0648 28.7112 30.2157C28.347 30.3665 27.9567 30.4442 27.5625 30.4442C27.1683 30.4442 26.778 30.3665 26.4138 30.2157C26.0496 30.0648 25.7187 29.8437 25.44 29.565L25.35 29.475C24.9985 29.1379 24.5561 28.9109 24.0773 28.8217C23.5985 28.7326 23.104 28.7853 22.6547 28.9733C22.2054 29.1613 21.8208 29.4764 21.5482 29.88C21.2756 30.2836 21.1267 30.758 21.12 31.245V31.5C21.12 32.2956 20.8039 33.0587 20.2413 33.6213C19.6787 34.1839 18.9157 34.5 18.12 34.5C17.3244 34.5 16.5613 34.1839 15.9987 33.6213C15.4361 33.0587 15.12 32.2956 15.12 31.5V31.365C15.1084 30.8685 14.9477 30.387 14.6588 29.9831C14.3699 29.5791 13.9661 29.2714 13.5 29.1C13.0476 28.9003 12.5457 28.8408 12.0591 28.929C11.5725 29.0172 11.1235 29.2492 10.77 29.595L10.68 29.685C10.4013 29.9637 10.0704 30.1848 9.70619 30.3357C9.34201 30.4865 8.95168 30.5642 8.5575 30.5642C8.16332 30.5642 7.77299 30.4865 7.40881 30.3357C7.04463 30.1848 6.71373 29.9637 6.435 29.685C6.15627 29.4063 5.93517 29.0754 5.78432 28.7112C5.63347 28.347 5.55583 27.9567 5.55583 27.5625C5.55583 27.1683 5.63347 26.778 5.78432 26.4138C5.93517 26.0496 6.15627 25.7187 6.435 25.44L6.525 25.35C6.86208 24.9985 7.08913 24.5561 7.17826 24.0773C7.2674 23.5985 7.21473 23.104 7.02672 22.6547C6.83872 22.2054 6.52357 21.8208 6.12 21.5482C5.71642 21.2756 5.242 21.1267 4.755 21.12H4.5C3.70435 21.12 2.94129 20.8039 2.37868 20.2413C1.81607 19.6787 1.5 18.9157 1.5 18.12C1.5 17.3244 1.81607 16.5613 2.37868 15.9987C2.94129 15.4361 3.70435 15.12 4.5 15.12H4.635C5.13149 15.1084 5.61301 14.9477 6.01695 14.6588C6.42089 14.3699 6.72857 13.9661 6.9 13.5C7.09904 13.0471 7.15779 12.5449 7.06867 12.0583C6.97955 11.5717 6.74664 11.123 6.4 10.77L6.31 10.68C5.74708 10.1164 5.4311 9.35229 5.43156 8.55573C5.43203 7.75917 5.74891 6.99542 6.3125 6.4325C6.87609 5.86958 7.64021 5.55359 8.43677 5.55406C9.23333 5.55453 9.99708 5.87141 10.56 6.435L10.65 6.525C11.0035 6.87081 11.4525 7.10278 11.9391 7.19101C12.4257 7.27924 12.9276 7.21967 13.38 7.02H13.5C13.9437 6.82986 14.322 6.51413 14.5885 6.1117C14.8551 5.70926 14.9981 5.23768 15 4.755V4.5C15 3.70435 15.3161 2.94129 15.8787 2.37868C16.4413 1.81607 17.2044 1.5 18 1.5C18.7956 1.5 19.5587 1.81607 20.1213 2.37868C20.6839 2.94129 21 3.70435 21 4.5V4.635C21.0067 5.122 21.1556 5.59642 21.4282 6C21.7009 6.40357 22.0854 6.71872 22.5347 6.90672C22.984 7.09473 23.4785 7.1474 23.9573 7.05826C24.4361 6.96913 24.8784 6.74208 25.23 6.405L25.32 6.315C25.8829 5.75208 26.6464 5.43583 27.4425 5.43583C28.2386 5.43583 29.0021 5.75208 29.565 6.315C30.1279 6.87792 30.4442 7.64141 30.4442 8.4375C30.4442 9.23359 30.1279 9.99708 29.565 10.56L29.475 10.65C29.1284 11.003 28.8955 11.4517 28.8063 11.9383C28.7172 12.4249 28.776 12.9271 28.975 13.38V13.5C29.1655 13.9444 29.482 14.3233 29.8854 14.5899C30.2888 14.8565 30.7615 14.999 31.245 15H31.5C32.2956 15 33.0587 15.3161 33.6213 15.8787C34.1839 16.4413 34.5 17.2044 34.5 18C34.5 18.7956 34.1839 19.5587 33.6213 20.1213C33.0587 20.6839 32.2956 21 31.5 21H31.365C30.8823 21.0019 30.4107 21.1449 30.0083 21.4115C29.6059 21.678 29.2901 22.0563 29.1 22.5V22.5Z" stroke="white" stroke-width="3" stroke-linecap="round" stroke-linejoin="round"/>
</svg>
