<svg width="50" height="31" viewBox="0 0 50 31" fill="none" xmlns="http://www.w3.org/2000/svg">
<path d="M48.86 2.7841C49.203 1.6121 48.86 0.750097 47.208 0.750097H41.741C41.2281 0.71504 40.718 0.849258 40.2887 1.13215C39.8595 1.41504 39.535 1.83097 39.365 2.3161C39.365 2.3161 36.58 9.1691 32.645 13.6161C31.373 14.9001 30.789 15.3161 30.092 15.3161C29.749 15.3161 29.219 14.9031 29.219 13.7321V2.7841C29.219 1.3781 28.829 0.750097 27.678 0.750097H19.078C18.9038 0.741904 18.7297 0.768181 18.5657 0.827423C18.4016 0.886665 18.2509 0.977706 18.1221 1.09532C17.9934 1.21294 17.8891 1.35482 17.8153 1.51283C17.7415 1.67084 17.6996 1.84186 17.692 2.0161C17.692 3.3471 19.66 3.6571 19.864 7.4071V15.5451C19.864 17.3261 19.548 17.6541 18.852 17.6541C16.996 17.6541 12.485 10.7731 9.811 2.8981C9.273 1.3691 8.743 0.750097 7.342 0.750097H1.875C0.316 0.750097 0 1.4911 0 2.3161C0 3.7781 1.856 11.0441 8.642 20.6441C13.162 27.2001 19.529 30.7501 25.321 30.7501C28.802 30.7501 29.229 29.9631 29.229 28.6031C29.229 22.3401 28.913 21.7501 30.658 21.7501C31.466 21.7501 32.858 22.1631 36.107 25.3221C39.82 29.0721 40.432 30.7501 42.507 30.7501H47.974C49.533 30.7501 50.322 29.9631 49.868 28.4061C48.828 25.1341 41.802 18.4061 41.486 17.9531C40.678 16.9031 40.911 16.4341 41.486 15.4971C41.495 15.4881 48.169 5.9971 48.856 2.7841H48.86Z" fill="white"/>
</svg>
