<svg width="40" height="31" viewBox="0 0 40 31" fill="none" xmlns="http://www.w3.org/2000/svg">
<path d="M39.164 5.6939C38.9585 4.80656 38.5237 3.98867 37.9033 3.32187C37.2828 2.65508 36.4983 2.1627 35.628 1.8939C32.509 0.993897 20 0.993896 20 0.993896C20 0.993896 7.492 0.993897 4.372 1.8939C3.50174 2.1627 2.71721 2.65508 2.09674 3.32187C1.47626 3.98867 1.04155 4.80656 0.836 5.6939C5.96046e-08 9.0429 0 16.0299 0 16.0299C0 16.0299 5.96046e-08 23.0169 0.836 26.3659C1.04397 27.2447 1.48056 28.053 2.10153 28.7087C2.7225 29.3645 3.50578 29.8444 4.372 30.0999C7.491 30.9999 20 30.9999 20 30.9999C20 30.9999 32.508 30.9999 35.628 30.0999C36.4945 29.8442 37.2779 29.364 37.8989 28.7079C38.5199 28.0518 38.9563 27.2431 39.164 26.3639C40 23.0149 40 16.0279 40 16.0279C40 16.0279 40 9.0409 39.164 5.6919V5.6939ZM15.909 22.3739V9.6859L26.364 16.0299L15.909 22.3739Z" fill="white"/>
</svg>
