<svg width="40" height="31" viewBox="0 0 40 31" fill="none" xmlns="http://www.w3.org/2000/svg">
<path d="M39.164 5.69402C38.9585 4.80669 38.5237 3.9888 37.9033 3.322C37.2828 2.6552 36.4983 2.16282 35.628 1.89402C32.509 0.994019 20 0.994019 20 0.994019C20 0.994019 7.492 0.994019 4.372 1.89402C3.50174 2.16282 2.71721 2.6552 2.09674 3.322C1.47626 3.9888 1.04155 4.80669 0.836 5.69402C5.96046e-08 9.04302 0 16.03 0 16.03C0 16.03 5.96046e-08 23.017 0.836 26.366C1.04397 27.2449 1.48056 28.0531 2.10153 28.7088C2.7225 29.3646 3.50578 29.8445 4.372 30.1C7.491 31 20 31 20 31C20 31 32.508 31 35.628 30.1C36.4945 29.8444 37.2779 29.3641 37.8989 28.708C38.5199 28.0519 38.9563 27.2432 39.164 26.364C40 23.015 40 16.028 40 16.028C40 16.028 40 9.04102 39.164 5.69202V5.69402ZM15.909 22.374V9.68602L26.364 16.03L15.909 22.374Z" fill="black"/>
</svg>
